<?xml version="1.0" encoding="UTF-8"?>
<svg id="Layer_2" xmlns="http://www.w3.org/2000/svg" viewBox="0 0 265.95 261.3">
  <defs>
    <style>
      .cls-1 {
        fill: #b30b06;
      }
    </style>
  </defs>
  <g id="Layer_1-2" data-name="Layer_1">
    <path class="cls-1" d="M134.03,21.16c20.49,0,40.99.09,61.48-.08,3.54-.03,4.46,1.02,4.44,4.48-.13,25.82-.13,51.65,0,77.47.02,3.39-.75,4.65-4.36,4.59-6.73-.12-6.73.11-6.69,7.09,0,1.83.04,3.67.02,5.5-.03,2.66.73,5.76-.37,7.88-1.35,2.61-4.8,1-7.3,1.12-2.58.12-2.36,1.65-2.45,3.35-.44,8.41-.46,8.58-8.53,8.62-3.16.02-4.19,1.1-3.9,4.06.15,1.49-.05,3,.06,4.49.19,2.37-.77,3.23-3.17,3.13-19.81-.89-39.64-.64-59.46-.43-2.55.03-3.67-.71-3.19-3.39.23-1.3-.05-2.68.14-3.99.47-3.21-.98-4.18-3.95-3.81-1.31.16-2.67-.08-3.99.04-2.43.23-3.31-.84-3.08-3.17.12-1.15-.15-2.36.04-3.49.76-4.58-1.34-6.04-5.59-5.34-4.16.69-6.28-.6-5.54-5.26.34-2.11.07-4.32.06-6.49-.02-2.66.7-5.68-.32-7.9-1.29-2.83-4.73-1-7.19-1.38-2.88-.44-2.75-2.48-2.76-4.48-.04-7.83-.04-15.66-.04-23.49,0-18.16.11-36.32-.06-54.48-.04-3.7.94-4.78,4.72-4.74,20.32.19,40.65.09,60.98.09Z"/>
    <path class="cls-1" d="M11.7,75.2Q.09,75.45.11,64.02c0-12.83.1-25.66-.11-38.48-.06-3.44.82-4.57,4.39-4.5,12.16.22,24.33-.06,36.48.18,3.48.07,4.76-1.12,4.71-4.37-.06-3.66.32-7.38-.17-10.98C44.71.79,46.79-.03,51.4,0c35.15.2,70.31.11,105.46.12,19.99,0,39.99.14,59.98-.1,4.25-.05,5.48,1.21,5.11,5.29-.33,3.63-.12,7.33.08,10.99.18,3.33,1.45,5.1,5.5,4.97,11.32-.34,22.66.03,33.98-.19,3.53-.07,4.48.95,4.43,4.45-.19,15.16-.2,30.32,0,45.48.05,3.65-1.2,4.42-4.56,4.34-6.76-.18-6.76,0-6.81,6.86-.03,3.67-.29,7.35,0,10.99.28,3.49-1.18,4.37-4.31,4.07-2.15-.21-4.33-.05-6.49-.06l.17.16c-.06-5.83.1-11.66-.27-17.47-.24-3.89,1.26-5.22,4.84-4.59,4.51.79,5.63-1.15,5.52-5.47-.28-10.48-.27-20.99.05-31.47.13-4.29-1.32-5.34-5.37-5.16-7.31.32-14.66.26-21.98.03-3.38-.1-4.18,1.13-4.14,4.3.15,11.32-.06,22.65.1,33.97.05,3.31-.69,5.32-4.35,4.5-2.94-.66-7.77,2.33-7.69-4.43.22-18.82-.05-37.64.18-56.45.05-4.04-1.21-4.89-5.02-4.88-47.63.12-95.26.12-142.89-.02-4.01-.01-5.4.8-5.35,5.12.24,18.15-.11,36.31.2,54.45.09,5.05-1.94,5.69-6.13,5.57-3.82-.11-6.5.13-6.25-5.31.49-10.64-.01-21.31.17-31.97.06-3.51-.59-5.04-4.58-4.88-8.31.33-16.65.25-24.97.03-3.31-.09-4.18.98-4.16,4.21.06,12.64-.17,25.27-.29,37.91,0,0,.16-.13.16-.13Z"/>
    <path class="cls-1" d="M134.03,261.2c-20.48,0-40.96-.13-61.44.11-4.2.05-4.94-1.42-4.86-5.14.07-3.47.3-5.97,4.7-5.09,5.48,1.09,7.05-1.59,6.25-6.53-.54-3.36.61-4.79,4.26-4.52,4.31.31,8.67-.13,12.98.13,3.14.19,4.27-.92,3.85-3.95-.14-.98.12-2.02-.04-2.99-.7-4.2,1.01-5.41,5.17-5.2,6.73.34,6.99.07,6.73-6.79-.14-3.68,1.18-4.42,4.52-4.37,11.99.19,23.98.23,35.96.05,3.49-.05,4.55.97,4.45,4.47-.19,6.67.02,6.9,6.5,6.65,3.86-.15,5.56.93,4.89,4.92-.19,1.14.07,2.34-.07,3.49-.36,2.78.63,3.85,3.56,3.71,4.48-.23,9,.08,13.48-.11,3.05-.13,4.4.52,4.29,4.04-.22,6.81.04,7.17,6.75,6.89,4.81-.2,3.83,2.7,3.95,5.4.13,2.83.28,4.98-3.92,4.93-20.65-.22-41.29-.1-61.94-.1Z"/>
    <path class="cls-1" d="M134.78,163.57c5.82,0,11.65.14,17.47-.06,3.15-.11,4.01,1.09,3.85,4.08-.23,4.48-.35,9.01,0,13.47.32,4.03-1.15,5.59-5,4.92-4.94-.86-7.14.83-6.26,6.06.33,1.94.06,3.99.06,5.98q0,8.54-8.76,7.86c-.66-.05-1.32-.2-1.98-.24q-10.5-.63-10.49-11.4c0-.83-.11-1.68.02-2.49.75-4.9-.7-7.59-6.23-6.54-3.77.72-4.94-.96-4.69-4.68.32-4.64.21-9.32.03-13.97-.1-2.69.97-3.47,3.49-3.42,6.16.11,12.31.04,18.47.04,0,.14,0,.27,0,.41Z"/>
    <path class="cls-1" d="M22.97,96.97q-10.91.91-10.96-9.88c-.03-3.96-.19-7.93-.3-11.89,0,0-.16.13-.16.14q11.35-.68,11.34,10.41c0,3.79-.05,7.59-.07,11.38l.15-.16Z"/>
    <path class="cls-1" d="M55.46,119.21c-5.96.02-11.94-.2-17.88.14-4.59.26-3.49-2.76-3.53-5.19-.05-2.54-.8-5.45,3.66-5.13,4.62.33,9.29.3,13.91,0,3.52-.23,4.88.97,4.36,4.43-.29,1.93.51,3.98-.64,5.81l.13-.06Z"/>
    <path class="cls-1" d="M222.7,109.11c1.49,0,3,.17,4.47-.03,4.33-.59,6.14.73,5.82,5.53-.23,3.51-.76,5.12-4.66,4.73-3.61-.36-7.28-.08-10.92-.08-5.05,0-7.7-4.32-5.58-8.99.66-1.47,1.86-1.13,2.92-1.15,2.65-.06,5.3-.02,7.95-.02Z"/>
    <path class="cls-1" d="M22.81,97.13c2.48.07,4.98.37,7.43.15,3.04-.27,4.01.79,4.01,3.84,0,6.38-3.86,8.94-10.13,6.53-1.52-.58-1.41-1.64-1.39-2.75.04-2.64.15-5.29.23-7.93,0,0-.15.16-.15.16Z"/>
    <path class="cls-1" d="M55.32,119.27c2.41.92,4.88.12,7.26-.04,3.72-.24,5.35.96,4.67,4.7-.33,1.81,1.23,4.63-1.1,5.23-2.77.72-5.91.33-8.84.01-1.46-.16-.79-1.91-1.03-2.96-.53-2.31,1.17-4.88-.83-7.01,0,0-.14.06-.14.06Z"/>
    <path class="cls-1" d="M243.77,97.2c.03,1.82-.15,3.66.14,5.44.73,4.57-1.33,5.32-5.51,5.4-4.64.09-5.79-1.36-5.75-5.83.04-4.18,1.3-5.69,5.36-5.13,1.95.27,3.94.19,5.92.28,0,0-.16-.16-.16-.16Z"/>
    <path class="cls-1" d="M210.78,124.46c1.32,4.85-1.6,4.78-5.16,4.93-3.89.15-4.98-1.03-4.95-4.93.03-4.03,1.09-5.38,5.27-5.33,4.11.05,5.93,1.11,4.83,5.34Z"/>
  </g>
</svg>