<?xml version="1.0" encoding="UTF-8"?>
<svg id="Layer_2" xmlns="http://www.w3.org/2000/svg" viewBox="0 0 297.35 206.45">
  <defs>
    <style>
      .cls-1 {
        fill: #b30b06;
      }
    </style>
  </defs>
  <g id="Layer_1-2" data-name="Layer_1">
    <g>
      <path class="cls-1" d="M149.14,206.45H16.43c-.34,0-.68,0-1.02,0-5.59-.08-5.98.6-6-5.89,0-.34-.02-.68-.05-1.02-.2-1.97-.62-2.44-2.47-2.56-1.36-.09-2.74-.02-4.09-.13-2.03-.16-2.59-.78-2.72-2.94-.08-1.19-.05-2.39-.05-3.59,0-50.58,0-101.17.02-151.75,0-5.81-.87-6.57,5.87-6.52,2.13.01,2.51-.59,2.73-2.84.2-2.01-.77-4.47.7-5.94,1.63-1.64,4.21-.64,6.37-.74,2.73-.12,5.46-.07,8.19-.13,1.2-.02,1.91-.72,1.99-1.9.17-2.56.23-5.12.41-7.67.17-2.51.67-2.99,3.05-3.21.68-.06,1.36-.07,2.05-.07,10.25,0,20.5-.02,30.74.04,4.43.03,4.5.17,4.56,4.67.03,2.39.02,4.78.07,7.18.03,1.18.64,1.91,1.86,1.99.85.06,1.71.08,2.56.08,8.88,0,17.76-.02,26.65-.04.51,0,1.03,0,1.54-.02,2.32-.14,2.77-.49,2.93-2.64.15-2.04.16-4.1.22-6.15.03-1.02.03-2.05.11-3.07.08-.98.71-1.54,1.66-1.62.84-.07,1.7-.01,2.55-.04,1-.03,1.61-.64,1.69-1.57.15-1.87.13-3.75.27-5.63.15-2.15.61-2.56,2.89-2.67,1.19-.06,2.39-.04,3.59-.04,25.45,0,50.9,0,76.35.02,6.61,0,6.33-.41,6.32,5.94,0,.85.03,1.71.1,2.56.08.95.61,1.55,1.55,1.74.17.03.34.03.51.06,1.48.27,3.27-.47,4.42.71,1.47,1.49.62,3.57.76,5.39.12,1.7.02,3.42.14,5.12.08,1.15.81,1.85,2.02,1.88,1.71.04,3.41.07,5.12.07,23.23,0,46.46-.02,69.69,0,6.47,0,6.61-.76,6.58,6.26,0,.51.05,1.02.13,1.53.15.97.75,1.49,1.71,1.56,1.7.13,3.4.19,5.1.34.75.07,1.28.58,1.34,1.32.13,1.53.21,3.06.21,4.59.01,17.26,0,34.52.01,51.78,0,32.64,0,65.28,0,97.92,0,.68,0,1.37,0,2.05-.03,5.38.43,6.03-5.39,5.98-.34,0-.68.03-1.02.07-1.47.19-1.97.71-2.09,2.37-.11,1.53-.06,3.08-.22,4.61-.17,1.7-.89,2.39-2.67,2.47-2.39.11-4.78.08-7.17.08-43.21,0-86.43,0-129.64,0v.02ZM148.44,186.82v.02c43.56,0,87.12,0,130.68,0,6.26,0,6.14.36,6.14-6.2-.01-22.9-.04-45.8-.05-68.7,0-12.82.06-25.63.04-38.45,0-4.56-.16-4.66-4.51-4.71-2.73-.03-5.47,0-8.2,0-24.6,0-49.2,0-73.79-.02-5.15,0-5.15-.06-5.26-4.98-.02-.68.01-1.37-.03-2.05-.26-4.31-1.35-5.37-5.61-5.47-2.56-.06-5.12-.1-7.68-.2-.95-.04-1.56-.62-1.66-1.61-.09-.85-.15-1.7-.15-2.56-.01-4.5-.36-4.44-4.74-4.44-14.35-.02-28.7-.02-43.05-.03-.85,0-1.71.02-2.56.07-1.17.07-1.91.67-2.01,1.87-.12,1.36-.1,2.73-.27,4.09-.3,2.34-.86,2.83-3.36,2.85-3.59.03-7.17-.08-10.76-.03-3.81.06-4.1.38-4.24,4.07-.02.51-.01,1.03-.01,1.54.01,7.79.19,6.86-6.98,6.87-27.16.05-54.32.03-81.48.08-7.19.01-6.58-.78-6.58,6.64-.02,35.03-.02,70.07,0,105.1,0,6.74-.52,6.22,6.5,6.26,1.2,0,2.39,0,3.59,0,42.02,0,84.04,0,126.06,0ZM260.81,47.42v.02c-3.75,0-7.51-.04-11.26.02-1.72.03-2.34.54-2.36,2.02-.07,4.95-.05,9.9-.02,14.85,0,1.26.89,1.79,2,1.88,1.36.11,2.73.12,4.09.12,5.46,0,10.92-.01,16.38-.02.85,0,1.71.02,2.56-.03,2-.13,2.82-.75,3.01-2.74.44-4.42.61-8.86-.26-13.25-.51-2.57-.85-2.81-3.38-2.86-3.58-.07-7.17-.02-10.75-.02Z"/>
      <path class="cls-1" d="M97.32,119.86c0-5.46,0-10.93,0-16.39,0-1.02.03-2.05.14-3.06.1-.94.71-1.56,1.64-1.69,1.18-.17,2.37-.2,3.56-.31,2.81-.25,3.03-.46,3.2-3.45.11-1.87.07-3.76.2-5.63.15-2.11.68-2.63,2.87-2.76,2.38-.15,4.78-.1,7.16-.25,1.87-.12,2.34-.65,2.45-2.55.12-1.87.1-3.75.24-5.62.07-.94.71-1.55,1.68-1.61,2.21-.13,4.43-.14,6.64-.31,1.6-.12,2.11-.66,2.28-2.2.13-1.19.12-2.39.19-3.58.23-3.6.45-3.97,3.8-3.99,12.11-.07,24.23-.03,36.35-.02.68,0,1.36.11,2.03.19,1,.11,1.5.71,1.53,1.68.06,1.88.05,3.76.15,5.63.09,1.62.6,2.17,2.17,2.26,2.21.12,4.44.07,6.65.18,2.47.12,2.82.53,2.99,3.12.02.34.03.68.02,1.02-.02,6.31.02,5.91,5.86,5.92,7.54.02,6.76-.28,6.79,7.06.02,5.85-.52,6.02,5.77,5.95,2.28-.03,2.65.31,2.73,2.61.11,3.07.11,6.14.11,9.22,0,8.02-.01,16.05-.03,24.07,0,1.02,0,2.05-.07,3.07-.16,2.23-.63,2.7-2.7,2.92-.17.02-.34.03-.51.03-5.86.06-5.26.24-5.38,5.94-.02.85.02,1.71-.04,2.56-.42,5.22-1.14,4.47-4.93,4.41-1.71-.03-3.42-.04-5.12.05-1.79.1-2.28.68-2.46,2.58-.05.51-.08,1.02-.06,1.53.17,5.45-.53,5.49-5.4,5.45-.51,0-1.02,0-1.54,0-4.52,0-5.72-.05-5.04,5.01.09.66,0,1.36-.1,2.03-.1.75-.59,1.21-1.34,1.3-.84.1-1.7.18-2.55.18-11.09,0-22.18,0-33.27,0-.68,0-1.36-.06-2.04-.1-1.01-.06-1.49-.66-1.6-1.62-.19-1.52-.34-3.05-.58-4.56-.23-1.39-.94-2.08-2.42-2.15-2.73-.13-5.46-.09-8.18-.22-1.89-.09-2.34-.6-2.45-2.52-.08-1.36,0-2.74-.12-4.09-.16-1.98-.93-2.79-2.86-2.91-2.04-.12-4.09-.03-6.14-.1-2.01-.07-2.45-.47-2.58-2.35-.19-2.72-.24-5.46-.48-8.17-.14-1.55-.88-2.2-2.38-2.01-1.88.24-3.7.54-5.5-.31-.67-.31-1.15-.74-1.2-1.48-.08-1.19-.14-2.38-.14-3.58-.01-5.46,0-10.93,0-16.39h0ZM152.04,153.83v-.05c6.48,0,12.97.04,19.45-.02,1.97-.02,2.45-.54,2.55-2.43.12-2.38.08-4.78.19-7.16.08-1.65.6-2.2,2.12-2.29,1.53-.09,3.07-.03,4.6-.09,3.36-.13,3.62-.41,3.76-3.96.02-.51.02-1.02.02-1.54,0-10.41,0-20.82,0-31.24,0-1.02-.01-2.05-.1-3.07-.14-1.56-.71-2.17-2.2-2.25-1.87-.1-3.75-.04-5.63-.13-2-.09-2.46-.48-2.53-2.4-.1-2.56-.06-5.12-.1-7.68-.07-4.52-.13-4.58-4.56-4.71-.85-.03-1.71-.02-2.56-.02-10.24.01-20.47.02-30.71.04-1.19,0-2.39-.01-3.58.08-2.33.17-3.26.99-2.86,3.2.59,3.28-.39,6.42-.37,9.63,0,1.2-.8,1.81-2,1.83-2.05.03-4.09.03-6.14.09-3.17.1-3.33.29-3.44,3.64-.02.51,0,1.02,0,1.54,0,10.58,0,21.17,0,31.75,0,1.02.02,2.05.07,3.07.06,1.19.72,1.91,1.9,1.98,2.38.13,4.77.12,7.16.25,1.95.11,2.43.58,2.54,2.46.14,2.55.14,5.11.31,7.67.06.9.65,1.58,1.64,1.66,1.19.09,2.38.14,3.57.14,5.63.01,11.26,0,16.89,0Z"/>
    </g>
  </g>
</svg>