<?xml version="1.0" encoding="UTF-8"?>
<svg id="Layer_2" xmlns="http://www.w3.org/2000/svg" viewBox="0 0 298.92 173.5">
  <defs>
    <style>
      .cls-1 {
        fill: #b30b06;
      }
    </style>
  </defs>
  <g id="Layer_1-2" data-name="Layer_1">
    <path class="cls-1" d="M11.75,71.39c0-10.33.03-20.66-.03-30.99-.01-2.61.13-4.32,3.53-2.68,1.36.66,3.28.09,4.94.21,2.74.19,4.11-.92,3.9-3.75-.04-.5-.01-1,0-1.5.08-7.68.08-7.84,7.86-7.78,3.22.02,4.71-.88,4.18-4.2-.05-.33-.01-.67,0-1,.04-7.68.04-7.84,7.9-7.75,3.18.03,4.67-.75,4.2-4.13-.2-1.47.09-3.01-.08-4.49-.31-2.76.99-3.31,3.49-3.3,15.49.11,30.99.15,46.48.03,3.27-.03,4.26.98,4.22,4.27-.09,7.51.09,7.53,7.61,7.54,27.49.01,54.98-.11,82.46.13,4.55.04,6.04-1.33,5.31-5.59-.82-4.81.71-6.57,6.05-6.41,14.15.44,28.32.25,42.48.04,3.49-.05,4.93.88,4.4,4.42-.17,1.14.08,2.34-.04,3.49-.32,2.99.84,4,3.94,4.02,8.66.08,8.84.23,8.74,8.76-.04,3.37,1.06,4.5,4.24,4.13,1.15-.14,2.35.12,3.49-.05,3.44-.51,5.02.71,4.31,4.31-.1.48.04,1.01-.05,1.49-.85,4.85.76,7.24,6.02,6.24,4.74-.91,6.15.93,6.07,5.85-.31,19.65-.03,39.32-.22,58.97-.04,3.96.55,5.46,5.09,5.12,7.49-.57,6.55-1.55,6.59,6.3.07,14.33-.14,28.66.08,42.98.06,3.96-1.11,5.12-5.03,4.97-6.62-.25-6.83,0-6.55,6.99.15,3.75-.69,5.13-4.82,5.07-16.12-.25-32.26-.23-48.38.03-3.59.06-4.32-1.22-4.01-4.25.13-1.32-.11-2.68.06-3.99.41-3.13-.92-4.3-3.95-3.85-.65.1-1.35-.05-1.99.06-4.8.82-7.17-.65-6.26-5.98.59-3.49.37-5.88-4.83-5.69-7.17.26-7.47-.42-7.11-7.87.22-4.46-1.24-5.61-5.59-5.62-20.13-.07-40.27-.76-60.4-.69-14.11.05-28.22,1.04-42.34,1.47-2.52.08-3.77.76-3.44,3.42.08.66,0,1.33-.02,2-.16,7.8-.16,7.93-8.08,7.72-2.92-.08-4.12.47-4.12,3.73,0,7.29-.2,7.56-7.26,7.27-3.97-.16-5.07,1.29-4.48,4.84.03.16,0,.33,0,.5-.02,7.39-.02,7.3-7.55,7.26-15.16-.08-30.32-.16-45.48.02-3.94.05-6.05-.8-5.26-5.15.94-5.19-1.22-7.29-6.4-6.37-4.24.76-5.69-.71-5.59-5.29.32-15.15.26-30.32.02-45.48-.06-4.02,1.16-5.03,5.03-4.9,7.3.23,6.59,1.58,6.68-6.43.1-9.49.02-18.99.02-28.49ZM49.07,62.14c-2.83,0-5.68.16-8.49-.05-2.74-.2-3.42,1-3.34,3.5.14,4.33.19,8.67,0,12.99-.12,2.72.96,3.33,3.47,3.33,5.31.01,10.62.53,15.93.5,3.12-.01,4.04,1.21,3.87,4.15-.28,4.82-.14,9.66-.46,14.47-.21,3.18,1.02,4.02,4.02,3.85,4.32-.25,8.66-.2,12.99-.07,2.44.08,3.18-.87,3.11-3.2-.13-4.49.35-9.04-.12-13.48-.48-4.54,1.37-5.88,5.48-5.72,2.99.12,6-.03,8.99-.18,7.6-.37,7.6-.4,7.6-7.98q0-12.18-12.13-12.16c-2.66,0-5.83.83-7.86-.32-2.68-1.52-.65-5.15-1.26-7.78-.15-.65-.36-1.28-.53-1.92-.88-3.24,1.69-7.85-1.55-9.61-2.72-1.48-6.83-.41-10.33-.42q-8.37-.02-8.23,8.47.19,11.59-11.14,11.63ZM212.86,71.63q0-10.26-9.24-9.89-10.26.41-10.29,10.62-.03,9.42,9.37,9.42,10.17,0,10.16-10.15ZM238.23,96.49q.02-9.42-8.7-9.38-10.71.04-10.72,10.6-.01,9.2,9.11,9.19,10.29,0,10.31-10.41ZM219.34,46.46q-.33,10.4,8.14,10.4,10.79.01,10.8-10.87,0-8.97-9.2-8.97-9.44,0-9.74,9.44ZM261.9,71.9c0-2.97,1.07-6.63-.27-8.75-1.7-2.67-5.39.35-8.22-.2-.16-.03-.33,0-.5,0q-9.74.09-9.7,9.68.04,9.16,9.1,9.16,9.76,0,9.59-9.89ZM171.21,104.19c-10.97-.32-10.69-.3-11.04,6.52-.22,4.21,1.18,5.53,5.22,5.26,3.29-.23,6.63.03,9.94.22,6.86.39,6.5.41,6.95-6.18.35-5-1.45-6.53-6.1-5.85-1.62.24-3.31.04-4.97.04ZM128.42,104.1c-13.5.32-10.69-1.17-11.28,8.86-.02.33,0,.66,0,.99-.01,1.32.37,2.16,1.95,2.19,5.62.13,11.24.98,16.87.08,1.03-.17,2.03.19,2.3-1.7,1.34-9.1.27-10.5-8.85-10.43-.33,0-.66,0-1,0Z"/>
  </g>
</svg>