<?xml version="1.0" encoding="UTF-8"?>
<svg id="Layer_2" xmlns="http://www.w3.org/2000/svg" viewBox="0 0 279.15 264.22">
  <defs>
    <style>
      .cls-1 {
        fill: #b30b06;
      }
    </style>
  </defs>
  <g id="Layer_1-2" data-name="Layer_1">
    <g>
      <path class="cls-1" d="M202.73,14.63c-.87-4.85.82-6.7,6-6.17,5.27.54,10.64.16,15.97.09,1.16-.02,3.21.59,2.95-1.5-.59-4.65,2.56-3.54,5.01-3.56,4.16-.03,8.33.12,12.48-.06,2.29-.1,5.02,1.24,6.35-2.57.67-1.9,5.99-.41,6.31,1.89.31,2.23,1.31,2.95,3.27,2.58,3.66-.71,4.08,1.28,3.85,4.19-.18,2.32.05,4.66-.06,6.99-.07,1.7.59,2.69,2.26,2.34,3.79-.79,3.89,1.37,3.82,4.17-.13,5.82-.29,11.66.04,17.47.21,3.66-1.1,4.55-4.48,4.29-3.14-.24-6.32.16-9.48.12-2.26-.02-4.36-.34-4.13,3.12.17,2.57-2.09,1.54-3.31,1.56-6.82.1-13.65,0-20.47.08-1.14.01-3.35-.77-3.17,1.16.46,5.14-3.03,3.9-5.74,3.92-7.32.06-14.65-.04-21.97.09-2.56.05-3.43-.71-3.37-3.39.07-3.17,1.69-7.42-4.49-7.4-2.16,0-1.39-3-1.37-4.71.06-3.54.19-6.77-5.07-5.88-2.85.48-3.16-1.78-3-3.94.15-2.04-.47-2.95-2.75-2.9-10.08.22-20.17-.44-30.22,1.04-1.65.24-2.27.66-2.25,2.38.01,1.87.54,2.87,2.55,2.58,2.67-.39,4.09.42,3.66,3.42-.15,1.07-.26,2.63,1.51,2.49,4.62-.36,4.39,2.82,4.44,5.85.07,3.51-1.11,7.88,5.17,6.77,2.07-.37,1.96,1.5,1.77,2.71-.53,3.47,1.39,3.7,4.08,3.62,5.32-.15,10.69-.4,15.96.1,2.96.28,4.48-2.54,7.82-1.96,3.3.58,2.08,2.19,2.25,3.59.21,1.76.55,3.54-2.5,3.47-7.82-.2-15.64-.03-23.47-.07-2.26-.01-4.44-.28-3.98,3.17.38,2.87-1.9,2.04-3.36,2.1-8.61.34-17.24-.56-25.86.61-2.16.29-3.07.86-2.74,2.94.5,3.11-1.42,3.02-3.6,3.01-9.15-.06-18.31,0-27.46-.06-2.27-.01-4.4-.26-3.96,3.18.38,2.95-2.03,1.98-3.42,1.99-8.82.08-17.64.11-26.46,0-2.48-.03-3.68.42-3.02,3.22.76,3.24-.96,3.79-3.87,3.71-7.65-.2-15.31-.18-22.97.03-1.95.05-5.21-1.85-5.33,2.78-.11,4.56,3.03,3.05,5.1,3.06,27.3.07,54.59.05,81.89.05,51.43,0,102.87.04,154.3-.1,3.87-.01,4.99.93,4.9,4.85-.27,11.81-.17,23.63-.04,35.45.03,2.7-.07,4.59-3.55,3.98-3.31-.58-2.78,1.89-2.78,3.81-.02,14.81,0,29.62-.02,44.44-.02,21.14-.11,42.27-.02,63.41.01,2.85-.43,4.51-3.69,3.94-2.84-.49-2.59.99-2.2,3.05.51,2.74-.05,4.74-3.74,4.21-3.15-.45-6.58-.51-2.75,4.71-2.19,0-3.5,0-4.82,0-75.23,0-150.47,0-225.7-.02-2.45,0-5.65,1.1-5.02-3.56.24-1.83-1.64-1.4-2.6-1.29-5.91.68-2.64-5.55-4.87-6.58-2.61-1.2-5.52-.08-5.48-5.06.3-35.45.15-70.9.19-106.34,0-2.78.4-5.39-3.86-4.8-3.3.46-2.11-2.3-2.12-3.78-.08-15.81-.05-31.62-.05-47.43,0-3.05.86-6.66-4.42-5.7-1.88.34-1.54-1.3-1.54-2.37-.03-6.32.08-12.65-.04-18.97-.05-2.4,1.14-2.72,3.08-2.65,2.49.09,4.99.04,7.49.02,2.81-.03,6.28,1.08,5.53-4.12-.34-2.35,2.03-1.62,3.33-1.64,5.99-.09,11.98-.05,17.98-.1,1.23,0,3.37.5,3.16-1.29-.63-5.27,2.97-3.9,5.65-3.94,4.66-.07,9.33.1,13.98-.07,2.07-.08,5.33,1.53,5.1-3.04-.07-1.46,1.82-.96,2.88-.96,5.16-.04,10.32-.1,15.48.02,2.32.05,4.13-.38,3.98-3.06-.14-2.65,1.21-2.89,3.34-2.86,6.16.1,12.32.04,18.48,0,1.12,0,3.2.36,3.19-.57-.03-7.47,5.53-3.41,8.58-4.22,2.37-.63,5.78,1.24,6.08-3.41.06-.96,2.07-.6,3.2-.6,6.32-.04,12.65-.01,18.97-.11,1.15-.02,3.34.72,3.15-1.23-.51-5.26,3.12-3.82,5.76-3.86,5.82-.08,11.65-.08,17.48,0,1.94.03,3.35-.23,2.94-2.64-.52-3.01.98-3.52,3.63-3.46,6.82.16,13.65.04,20.47.03.16,6.88.15,7.06,7.25,7.33,2.75.11,3,1.39,2.74,3.41-.34,2.61.31,4.11,3.36,3.63,2.14-.34,2.42,1.09,2.37,2.8-.06,2.13-.02,4.27-.02,6.48,2.49-.46,4.55-.84,6.83-1.26.1,1.09.41,2.08.24,3-.74,4.19,1.36,4.89,4.98,4.69,4.97-.27,9.97-.12,14.95-.06,3.01.04,6.23.68,5.34-4.26-.42-2.33,2.01-1.24,2.69-1.36,2.15-.36,2.05-1.55,2.13-3.12.11-1.94-.9-2.28-2.43-2.09-2.07.26-2.55-.76-2.47-2.61.05-1.1.36-3.21-.54-3.18-6.31.21-3.72-4.96-4.9-8-4.54,1.69-7.54,1.16-6.55-4.64.3-1.76-.74-1.84-2.02-1.8-11.38.41-22.76.81-34.13,1.21ZM141.59,136.51c-37.94,0-75.88.05-113.82-.09-3.65-.01-4.7.77-4.68,4.6.18,33.44.12,66.88.11,100.33,0,2.65-.59,5.62,3.78,4.95,1.07-.17,2.13.2,1.98,1.53-.55,4.61,2.76,3.5,5.19,3.5,71.55.01,143.11.01,214.66-.03,2.79,0,6.77,1.47,6.19-4.04-.11-1.02,1.08-.99,1.9-1.05,3.16-.22,3.41-2.24,3.4-4.88-.17-33.27-.34-66.55-.24-99.82.01-4.18-1.03-5.13-5.15-5.11-37.77.18-75.55.1-113.32.1ZM201.27,105.23c.8.09,1.46.23,2.11.23,2.93,0,4.45-1.13,4.45-4.43,0-3.94-2.73-2.57-4.51-2.6-7.49-.11-14.98.07-22.47-.09-2.74-.06-4.45.12-4.06,3.58.26,2.28-.72,3.98-3.6,3.47-1.67-.29-2.55.51-2.28,2.24.43,2.75-1.54,3.25-3.47,3.76-.74.19-2.31.13-2.07.62,2.45,5.16-1.25,5.29-4.56,5.94-1.04.2-1.76,1.09-1.67,2.21.21,2.62-.97,3.41-3.48,3.3-2.51-.11-2.85,1.79-2.75,3.79.08,1.43-.38,3.13,2.04,3.12,8.66-.04,17.42.71,25.9-.52,2.22-.32,4-6.24,8.28-7.12-1.3-5.63,7.29-4.1,6.69-9.23,6.84.83,5.1-4.27,5.45-8.29ZM116.59,98.4c-.56,1.66,1.58,4.6-1.18,5.09-5.22.92-3.52,9.65-10.16,8.44-.09.64-.27,1.29-.25,1.93.19,5.24-4.38,2.51-6.39,3.94-2.11,1.5,1.39,6.77-3.79,6.54-3.41-.15-2.6,1.99-2.74,3.87-.21,2.89,1.9,2.13,3.38,2.14,6.65.06,13.31.17,19.95-.03,3.11-.09,7.67,2.03,7.9-4.09.02-.42,1.68-.74,2.56-1.16,1.15-.56,2.79-.88,2.33-2.67-.91-3.57.85-4.85,4.03-4.93,1.63-.04,1.89-.94,1.78-2.27-.11-1.3.65-1.86,1.82-1.69,3.85.54,3.33-1.93,3.15-4.34-.18-2.46-.71-5.34,3.41-4.8,2.3.3,3.67-.02,3.67-2.99,0-3.05-1.58-3.02-3.76-3-8.45.06-16.9.02-25.72.02ZM44.15,130.37c3.33,0,6.66-.11,9.98.03,3.07.13,5.75.22,4.9-4.22-.4-2.1,1.32-2,2.61-1.82,4.91.66,2.61-3.23,3.47-5.21,1.05-2.43,4.88,1.33,6.11-3.08,1.2-4.31,7.17-6.11,8.1-11.24.03-.14.93-.18,1.43-.17,3.45.04,2.14-2.78,2.44-4.38.5-2.57-1.74-1.86-3.01-1.87-7.65-.07-15.3.02-22.95-.09-2.21-.03-3.55.38-3.14,2.96.42,2.65.06,4.63-3.45,4.16-1.45-.19-2.23.42-2.54,2.21-.79,4.53-5.97,5.15-8.54,8.48-1.34,1.74-3.9,2.59-3.54,5.56.36,3.04-1.13,4.03-3.77,3.24-2.3-.7-2.94-.03-3.02,2.24-.08,2.24.38,3.37,2.95,3.25,3.98-.18,7.98-.05,11.97-.05ZM103.59,39.72s0-.03,0-.04c-4.31,0-8.63.04-12.94-.02-1.53-.02-2.74.32-2.74,2.03,0,1.32-.91,3.16,1.17,3.75,1.01.29,1.85.44,2.13,1.64.71,3.07.83,6.69,5.74,5.68.93-.19,1.18,1.2.95,1.91-2.37,7.3,6.97,5.07,7.83,9.7,3.39-1.7,3.32,3.52,6.26,3.05,7.88-1.26,16.49,2.91,23.79-3.67,1.33-1.2,2.17-1.81,2.21-3.52.04-1.76-.63-2.26-2.39-2.9-3.09-1.12-4.15-5.57-8.21-5.67-.14,0-.44-1.23-.36-1.84.57-4.23-1.96-4.49-5.17-4.4-1.17.03-3.73,1.03-3.47-1.36.56-5.23-2.85-4.31-5.84-4.31-2.99,0-5.97,0-8.96,0ZM229,130.38c3.66,0,7.32-.09,10.98.03,2.38.08,2.99-.6,4.14-3.08,1.53-3.29,5.65-5.23,7.91-8.69.71-1.09,2.99-1.39,2.82-3.68-.07-.96.15-2.5,1.25-2.37,5.28.65,4.08-2.85,4.16-5.85.08-3.17,2.67-2.36,4.48-2.21,2.25.19,2.9-.67,2.85-2.79-.05-2.02-.1-3.46-2.85-3.4-7.65.16-15.3.03-22.95.07-1.23,0-2.98-.42-2.82,1.73.26,3.37-.06,5.87-4.56,5.15-4.9-.79-.46,6.34-4.95,6.09-.33-.02-.66.04-1,.05-1.32.04-1.62.91-1.63,2.01-.07,5.07-9.5,4.14-6.97,10.88-.82.05-1.67.24-2.47.14-2.5-.31-2.52,1.19-2.59,3.03-.08,2.07.44,3.02,2.72,2.92,3.82-.16,7.65-.04,11.48-.03ZM63.82,56.6c-3.21,0-5.7.01-8.18,0-.95,0-2.5.14-2.36-1.06.69-5.84-3.6-3.71-6.15-3.79-1.95-.06-5.28-1.25-5.7.99-.65,3.42-2.59,2.71-4.58,2.74-2.82.05-5.67.26-8.46-.02-3.2-.32-3.37,1.29-3.36,3.81.03,4.2,3.01,3.1,5.26,3.16,3.82.1-.36,5.85,3.78,5.35,4.09-.49,3.41,2.17,3.69,4.64.4,3.54,5.77-.65,5.74,3.29-.02,3.3,1.72,3.32,4.07,3.27,3.81-.09,7.62.04,11.43-.07,2.42-.07,5.41.53,5.23-3.57-.07-1.68,1.32-1.59,2.49-1.6,2.66-.02,5.31,0,7.97-.06,1.56-.03,3.44.56,3.42-2.21-.02-1.94.31-3.74-2.57-3.55-1.97.14-3.36-1.03-3.34-2.86.03-2.93-1.74-2.74-3.58-2.45-4.74.74-6.52-1.03-4.79-6.02ZM16.63,64.88c-3.32,0-6.73-1.27-6.19,3.96.37,3.51-.42,7.21,5.06,6.7,3.48-.32,6.59-.11,6.7-5.38.11-5.06-1.84-6.11-5.58-5.28Z"/>
      <path class="cls-1" d="M142.01,225.4c-33.79,0-67.58,0-101.37-.02-1.93,0-4.29.94-4.35-2.8-.05-3.23,1.03-3.87,3.98-3.83,11.98.14,23.97-.09,35.95.14,3.58.07,4.44-1.08,4.4-4.49-.16-15.31-.18-30.62.04-45.93.05-3.67-1.19-4.32-4.51-4.27-11.65.19-23.3.09-34.95.07-2.35,0-4.8.85-4.91-3.42-.1-4.2,2.14-3.58,4.61-3.58,67.58,0,135.15,0,202.73,0,2.37,0,4.73-.81,4.65,3.48-.08,4.18-2.3,3.52-4.75,3.52-11.48,0-22.97.1-34.45-.07-3.09-.04-4.28.55-4.23,4,.2,15.47.23,30.96,0,46.43-.06,3.81,1.38,4.26,4.6,4.22,11.65-.16,23.3,0,34.95-.08,2.5-.02,3.89.15,3.88,3.35-.02,3.2-1.44,3.31-3.91,3.31-34.12-.06-68.24-.04-102.36-.04ZM141.95,164.28c-16.31,0-32.63.07-48.94-.07-2.98-.03-3.96.63-3.92,3.81.17,15.64.17,31.29,0,46.93-.04,3.15.92,3.87,3.92,3.86,32.63-.1,65.25-.11,97.88,0,3.2.01,4.23-.74,4.19-4.1-.18-15.48-.18-30.96.01-46.43.04-3.36-1.03-4.1-4.19-4.07-16.31.14-32.63.07-48.94.07Z"/>
    </g>
  </g>
</svg>