<?xml version="1.0" encoding="UTF-8"?>
<svg id="Layer_2" xmlns="http://www.w3.org/2000/svg" viewBox="0 0 245.32 261.28">
  <defs>
    <style>
      .cls-1 {
        fill: #b30b06;
      }
    </style>
  </defs>
  <g id="Layer_1-2" data-name="Layer_1">
    <path class="cls-1" d="M233.1,33.23c11.99-.44,12.07-.44,12.07,11.66.04,70.49,0,140.97.14,211.46,0,3.97-1.1,4.93-4.99,4.93-78.48-.11-156.97-.11-235.45-.02-3.47,0-4.89-.51-4.87-4.52.21-48.32-.27-96.65.43-144.97C.94,76.3.63,40.82.73,5.35.74,1.42,1.42-.01,5.82,0c65.82.16,131.64.1,197.46.1q7.83,0,7.77,8.03c0,1,.01,1.99.02,2.99l.16-.16c-2.99.06-6.04.5-8.96.09-4.57-.65-5.12,1.47-5.1,5.33.13,28.32-.05,56.64.17,84.96.04,4.67-.9,6.15-5.89,6.13-44.81-.19-89.62-.15-134.43.03-4.26.02-5.19-1.21-5.16-5.28.18-28.49-.04-56.98.21-85.46.04-4.78-1.46-5.74-5.85-5.64-9.82.22-19.65-.03-29.47-.26-3.33-.08-4.55.89-4.54,4.5.1,76.47.08,152.93-.02,229.4,0,3.42.8,4.66,4.4,4.55,7.99-.26,16-.31,23.98.01,3.94.16,4.61-1.29,4.6-4.84-.14-30.49-.1-60.97-.11-91.46,0-1.83-.07-3.68.11-5.49.22-2.22,1.25-3.28,3.84-3.53,10.93-1.04,21.87-.89,32.82-.9,23.16-.01,46.33.52,69.46-.21,14.3-.45,28.58-.61,42.87-.69,5.74-.04,6.8.96,6.9,6.95.18,10.49.22,20.99.23,31.48.02,21.32.09,42.65-.11,63.97-.04,3.8,1.08,4.85,4.77,4.72,7.32-.26,14.67-.33,21.98.07,4.38.24,5.15-1.39,5.15-5.37-.09-69.14-.04-138.27,0-207.41,0-1.16.09-2.32.14-3.48l-.1.1ZM123.71,249.21v.02c20.64,0,41.28-.08,61.92.08,3.46.03,4.51-.88,4.49-4.41-.13-28.8-.15-57.6.04-86.39.03-4.14-1.44-5.02-5.17-4.93-10.97.28-21.94.31-32.91.35-30.29.11-60.57.28-90.86.15-4.41-.02-5.07,1.5-5.05,5.4.17,28.3.21,56.6.04,84.89-.02,4.06,1.26,4.95,5.06,4.92,20.81-.16,41.62-.08,62.42-.08ZM125.05,11.11v.03c-18.49,0-36.98.12-55.47-.09-4.05-.05-5.38.92-5.35,5.18.2,24.48.09,48.97.11,73.46,0,7.01.04,6.9,6.85,7.07,36.62.9,73.22-.63,109.84-.34,3.7.03,4.85-.95,4.83-4.74-.18-25.32-.22-50.64-.06-75.95.02-3.84-1.12-4.72-4.78-4.68-18.65.17-37.31.08-55.97.08Z"/>
    <path class="cls-1" d="M211.07,11.13c2.46.17,4.93.56,7.38.45,2.73-.12,3.73.68,3.76,3.59.08,6.95-2.58,9.07-9.43,7.23-1.56-.42-1.66-1.32-1.65-2.51.02-2.97.07-5.94.1-8.91,0,0-.16.15-.16.15Z"/>
    <path class="cls-1" d="M233.2,33.13c-1.99.07-4-.04-5.96.26-4.04.6-5.97-.72-5.15-5.01.33-1.68-1-4.28,1.15-4.88,2.97-.83,6.23-.77,9.29.08.39.11.62,1.43.63,2.19.05,2.49-.04,4.98-.07,7.47,0,0,.1-.1.1-.1Z"/>
    <path class="cls-1" d="M123.04,174.09c15.65,0,31.31.14,46.96-.09,4.27-.06,5.33,1.41,5.35,5.45.02,4.17-.96,5.9-5.54,5.88-31.64-.18-63.28-.24-94.92-.03-5.41.04-4.55-3.03-4.85-6.36-.37-4.06,1.19-4.98,5.03-4.93,15.98.2,31.97.09,47.96.09Z"/>
    <path class="cls-1" d="M86.12,198.37c28.25,1.29,56.52.57,84.78.68,2.97.01,4.99.38,4.34,3.95-.47,2.58,1.95,6.48-3.89,6.39-18.36-.25-36.73-.18-55.1,0-13.43.12-26.89-.72-40.3.81-3.01.34-6.55.96-5.89-4.37.46-3.75-1.2-8.42,5.6-7.53,3.43.45,6.98.08,10.47.08Z"/>
    <path class="cls-1" d="M152.95,85.24c-4.33,0-8.66-.08-12.99.03-2.14.06-2.92-.67-2.91-2.86.06-18.82.06-37.65,0-56.47,0-2.2.83-2.88,2.94-2.85,9.27.16,18.55-.41,27.8.97,2.05.3,2.42,1.14,2.43,2.84.16,17.95,1.06,35.89.24,53.85-.13,2.94-1.04,4.23-4.05,4.15-4.49-.12-8.98-.03-13.47-.03,0,.12,0,.24,0,.37Z"/>
  </g>
</svg>