<?xml version="1.0" encoding="UTF-8"?>
<svg id="Layer_2" xmlns="http://www.w3.org/2000/svg" viewBox="0 0 283.98 226.04">
  <defs>
    <style>
      .cls-1 {
        fill: #b30b06;
      }
    </style>
  </defs>
  <g id="Layer_1-2" data-name="Layer_1">
    <g>
      <path class="cls-1" d="M276.09,71.39q7.81,1.49,7.81,10.16c0,5.49-.1,10.99.07,16.47.08,2.73-.19,4.65-3.63,3.97-3.1-.61-3.46,1.12-3.42,3.68.13,7.65,0,15.31.09,22.96.03,2.27-.11,3.99-3.08,3.44-2.87-.53-3.65.76-3.6,3.55.16,7.82-.08,15.64.11,23.46.07,2.83-.26,4.51-3.61,3.95-2.64-.44-3.7.31-3.57,3.44.35,8.47.08,16.97.25,25.45.05,2.7-.08,4.63-3.55,4.03-2.7-.46-2.81,1.2-2.77,3.3.09,5.99-.04,11.98-.03,17.97,0,1.82-.15,2.51-2.43,1.86-3.04-.87-5.61-.26-4.8,4.05.73,3.9-2.3,2.72-4.12,2.72-22.63.05-45.27.04-67.9.04-55.09,0-110.18-.02-165.27.05-2.98,0-5.16-.05-4.91-3.92.2-3.13-2.39-2.27-3.91-2.1-3.13.36-3.98-.75-3.83-3.83.26-5.65.17-11.31.04-16.97-.05-2.37.31-3.83,3.17-3.4,3.16.47,3.96-1.25,3.92-4.14-.12-8.49.06-16.97-.08-25.46-.04-2.52.51-3.74,3.25-3.35,3.35.47,3.76-1.57,3.72-4.28-.1-7.65.05-15.31-.07-22.96-.04-2.51.2-4.29,3.34-3.7,3.19.6,3.87-.87,3.81-3.85-.18-9.81-.05-19.63-.08-29.45,0-2.02-.37-4.17,2.86-3.67,2.68.41,2.4-1.52,2.4-3.18,0-4.83.2-9.66-.05-14.47-.17-3.23.75-4.74,4.12-4.15,3.05.54,4.37-.66,3.81-3.77-.52-2.9.82-3.5,3.56-3.5,78.56.07,157.11.09,235.67,0,5.75,0,3.12,3.11,2.69,5.59ZM154.62,87.15c-4.66,0-9.32.06-13.98-.03-1.81-.03-2.95.34-2.65,2.43.59,4.07-1.68,4.83-5.06,4.5-2.5-.25-4.73-.13-4.07,3.53.52,2.85-1,3.94-3.74,3.49-2.43-.4-3.11.61-3.07,3.02.14,8.99.12,17.97.03,26.96-.02,2.16.65,3.15,2.83,2.8,2.73-.45,3.21.88,3.29,3.34.09,2.66-1,3.1-3.21,2.88-1.51-.15-3.23-.23-2.85,2.16.91,5.7-3.83,3.62-6.27,5.04-2.23,1.3.59,7.01-4.73,7.02-.17,0-.33.02-.5,0-2.01-.19-2.68.84-2.51,2.7.29,3.16-1.46,4.26-4.26,3.86-3.28-.47-4.07,1-3.69,3.93.2,1.57.54,3.64-2.24,3.18-3.24-.54-2.99,1.57-2.94,3.64.05,1.78.55,3.96-2.45,3.64-3.62-.38-4.13,1.75-3.75,4.56.38,2.89-.43,4.53-3.72,3.96-2.61-.45-3.45.67-3.35,3.31.19,4.99.13,9.99,0,14.98-.06,2.16.65,2.91,2.83,2.85,4.49-.13,8.99-.03,13.48-.03,9.82,0,9.88,0,10.02-9.56.03-2.07.08-3.23,2.74-3.45,3.68-.3,8.73,1.96,10.7-1.17,1.73-2.76.4-7.43.42-11.26,0-.83,0-1.66,0-2.5q.03-8.25,8.23-8.24c9.62.01,9.71,0,9.65-9.38-.02-2.77.23-4.61,3.67-3.99,3.54.64,4.86-.98,4.15-4.39-.63-2.97,1.08-3.15,3.36-3.11,5.82.1,11.65,0,17.48.07,2.18.03,4.06.02,3.59-3.03-.31-2.02.39-3.1,2.7-2.92,3.49.27,4.78-1.57,4.23-4.89-.49-2.9.44-4.32,3.63-3.94,2.38.28,3.4-.74,3.34-3.42-.19-8.48-.11-16.97-.04-25.46.02-2.09-.13-3.59-2.84-3.3-2.77.3-4.58-.79-4.37-3.89.2-2.94-1.59-3.26-3.83-3.04-2.76.27-4.19-.91-3.81-3.72.38-2.84-1.04-3.25-3.43-3.17-4.32.15-8.65.04-12.98.05Z"/>
      <path class="cls-1" d="M3.07,22.01c2.27,0,4.09-.1,5.89.03,2.07.15,2.87-.53,3.02-2.74.45-6.32.57-6.32,7.07-5.8-.32-3.06-.08-5.66,4.07-5.85,5.49-.26,4.34-3.75,3.11-7.57,7.35,0,14.78,0,22.2,0,14.32,0,28.63.07,42.95-.06,3.2-.03,5.67,0,4.8,4.29-.45,2.23.69,3.04,2.81,2.67,3-.52,4.37.56,3.84,3.73-.39,2.38.31,3.88,3.13,3.4,3.04-.51,4.38.72,3.84,3.83-.69,3.98.66,6.02,4.99,5.22,2.67-.49,3.74.75,3.25,3.28-.83,4.32,1.47,4.66,4.99,4.66,38.95-.1,77.91-.07,116.86-.05,2.93,0,6.8-1.18,5.78,4.32-.32,1.74,1.22,1.8,2.33,1.6,4.01-.73,4.18,1.56,4.02,4.58-.2,3.65-.36,7.36.04,10.97.46,4.14-1.26,4.75-4.96,4.75-72.25-.1-144.49-.08-216.74-.06-2.45,0-6.07-1.33-4.58,3.83.42,1.45-1.24,2.23-2.73,1.96-3.78-.69-3.83,1.56-3.78,4.33.12,6.32-.03,12.65.08,18.97.04,2.08-.43,3.23-2.72,2.82-3.03-.54-3.49,1.01-3.45,3.64.13,9.32-.02,18.64.09,27.96.03,2.65-.04,4.68-3.57,4.1-2.56-.42-3.32.63-3.25,3.32.23,7.98.13,15.98.03,23.96,0,.84,1.25,2.53-1.62,2.43-2.32-.08-1.79-1.05-1.79-2.17-.02-43.43-.01-86.86-.01-130.34Z"/>
      <path class="cls-1" d="M171.07,115.91q0,7.07-6.88,7.1c-1,0-2.02-.12-2.99.06-3.36.62-4.97-.47-4.31-4.07.12-.64.02-1.33.02-1.99,0-8.99,0-8.76,9.02-9.1,4.01-.15,5.95.68,5.17,5.01-.18.97-.03,1.99-.03,2.99Z"/>
    </g>
  </g>
</svg>