<?xml version="1.0" encoding="UTF-8"?>
<svg id="Layer_2" xmlns="http://www.w3.org/2000/svg" viewBox="0 0 252.73 282.3">
  <defs>
    <style>
      .cls-1 {
        fill: #b30b06;
      }
    </style>
  </defs>
  <g id="Layer_1-2" data-name="Layer_1">
    <g>
      <path class="cls-1" d="M214.87,230.35c7.75,1.09,7.85,1.02,7.82-6.16,0-2.56-.74-5.15,3.69-4.65,2.91.32,2.21-2.66,2.21-4.51.03-23.8.02-47.59.02-71.39,0-4.16.05-8.32-.02-12.48-.05-3.02,1.3-6.79-4.31-6.55-2.29.1-1.54-2.55-1.55-4.06-.06-12.15-.09-24.3.01-36.44.02-2.69-.16-4.64-3.61-4.02-2.01.36-2.56-.67-2.48-2.55.12-2.82-.02-5.66.04-8.49.07-2.89.5-5.8-4.12-5.04-1.67.28-2.56-1.09-2.44-2.96.13-2.16.05-4.32.03-6.49-.02-1.82-.41-3.51-2.71-3.29-3.04.28-3.84-1.31-3.59-3.89.22-2.28-.5-3.59-3.02-3.14-4.54.81-4.43-1.74-3.3-5.13-3.58.3-6.51.18-5.8-4.66.35-2.41-2.05-1.5-3.33-1.59-3.36-.23-7.92,1.42-6.7-5.02.25-1.34-1.17-1.3-2.16-1.31-2.33-.03-4.67-.22-6.99-.02-2.82.24-4.53-.31-3.95-3.66.41-2.36-1.04-2.7-2.98-2.66-4.66.08-9.32-.05-13.98.07-2.01.05-3.29-.33-2.87-2.68.63-3.43-1.31-3.66-4.03-3.63-11.32.12-22.63.11-33.95.02-2.49-.02-4.36.15-3.78,3.36.46,2.55-.85,3.04-3.1,2.93-3.15-.16-6.32-.05-9.48-.01-2.76.03-6.2-1.11-5.68,4.01.16,1.51-1.73,2.18-3.41,2.15-2.16-.04-4.33.16-6.49.02-2.52-.16-4.34.23-3.78,3.38.53,2.97-1.25,3-3.5,3.18-3.15.25-8.1-2.36-7.95,4.23-4.9.3-4.43,8.87-10.94,6.98-1.8-.52-1.84,1.52-1.74,2.82.25,3.04-1.07,4.35-4.08,4.03-2.25-.24-2.9.97-2.83,2.99.07,1.99,0,3.99,0,5.99.02,2.32.58,4.88-3.46,3.39-1.43-.53-2.74.57-2.62,2.61.15,2.49,0,4.99.06,7.49.05,2.06.32,3.96-2.9,3.7-3.09-.25-2.11,2.4-2.12,3.96-.08,13.65-.05,27.29-.07,40.94,0,1.87.69,4.45-2.69,3.88-3.7-.63-3.89,1.38-3.88,4.26.07,28.62-.07,57.24.14,85.86.03,4.2-1.08,5.68-5.16,5.07-1.47-.22-3.01-.17-4.49,0-2.85.31-4.52-.37-3.98-3.7.36-2.25-.04-4.04-3.02-3.52-2.49.43-3.2-.74-2.97-3.06.35-3.6.29-6.94-4.96-6.12-2.1.33-1.89-1.34-1.89-2.63-.02-19.64.02-39.27-.07-58.91-.01-2.4.92-2.88,2.94-2.47,3.31.67,4.54-.74,4.02-3.98-.45-2.79.25-4.54,3.61-3.91.8.15,1.66-.04,2.49-.07-1.3-6.04,7.44-5.47,7.13-12-.81-17.27-.24-34.6-.29-51.91,0-2.8-.36-5.53,3.89-4.74,1.9.35,2.16-.89,2.11-2.41-.06-1.83.14-3.68-.05-5.49-.38-3.58-.07-6.29,4.69-5.3,2.15.45,2.47-.92,2.36-2.65-.08-1.33.11-2.68-.05-3.99-.42-3.59-.05-6.3,4.7-5.34,2.33.47,2.96-.94,2.62-2.9-.54-3.15,1.05-4.11,3.85-4.06.96.02,2.7.23,2.67-.65-.15-4.71,3.11-4.96,6.4-5.42.33-.05.85-.71.81-1.03-.58-4.58,1.34-6.48,5.94-5.91.55.07,1.79-.95,1.76-1.4-.44-6.8,4.65-4.29,7.76-4.43,2.97-.13,5.36-.07,4.61-4.09-.45-2.44,1.06-2.61,2.96-2.59,5.82.06,11.65-.11,17.47.01,2.42.05,3.91-.4,3.42-3.21-.46-2.64.67-3.32,3.27-3.3,17.97.11,35.95.1,53.92,0,2.48-.02,3.37.75,2.95,3.11-.56,3.13,1.21,3.47,3.73,3.42,5.66-.11,11.32.04,16.97-.05,2.09-.03,3.8.11,3.29,2.81-.72,3.89,1.67,3.82,4.38,3.76,2.94-.07,6.63-1.02,5.7,4.34-.36,2.07,1.68,1.84,2.82,1.65,4-.66,5.07,1.87,4.74,4.81-.39,3.46.52,4.78,3.8,3.42,3.9-1.63,4.76.05,4.42,3.51-.06.66,0,1.33,0,1.99,5.21-.22,6.3,6.18,10.28,6.81,3.4.54,4.14,1.46,3.82,4.4-.14,1.32.09,2.67-.06,3.99-.27,2.43.31,3.8,3.14,3.29,3.84-.69,5.06,1.21,4.62,4.78-.16,1.31.12,2.68-.07,3.99-.31,2.1.23,3.28,2.56,2.83,3.77-.74,3.81,1.49,3.8,4.28-.07,17.81.07,35.61-.11,53.42-.04,3.85.5,5.98,5.01,5.32,2.31-.34,5.1-.81,5.18,3.25.03,1.3,2,.92,3.02.76,3.36-.53,3.73,1.14,3.72,3.97-.11,22.3-.12,44.6-.06,66.9,0,2.87-.2,4.98-3.89,4.26-2.56-.5-3.12.88-2.94,3.11.14,1.65.03,3.33.02,4.99,0,7.4,0,7.45-7.52,7.9-1.47.09-2.39.06-2.6,1.99-.26,2.43-1.05,4.78-.91,7.31.2,3.69,1.19,8.07-5.3,6.77-1.93-.39-1.88,1.48-1.78,2.78.25,3.11-1.23,4.18-4.17,3.96-1.95-.15-2.76.76-4.2,2.47-2.31,2.73-5.22,6.34-8.71,7.16-3.22.75-4.24,1.55-3.79,4.51.58,3.74-.59,5.41-4.72,4.95-3.62-.4-7.32,0-10.97-.12-3.17-.11-6.04-.4-5.29,4.39.39,2.53-1.99,1.63-3.22,1.64-9.99.07-19.97.09-29.96.02-2.35-.02-4.19-.13-3.92,3.23.24,2.99-2.27,2.86-4.24,2.65-2.91-.32-3.99.89-3.51,3.64.62,3.49-1.11,3.99-4.15,3.92-8.15-.19-16.31-.22-24.46.02-3.17.09-4.78-.52-4.15-3.99.55-3.03-1.1-3.8-3.7-3.41-2.28.34-2.82-.73-2.75-2.82.14-3.82.02-7.65.05-11.48.02-2.85-1.16-6.5,4.37-4.93,2.44.69,2.85-1.85,2.53-3.73-.76-4.45,1.34-5.14,5.24-4.97,7.31.31,14.65.27,21.96.01,3.82-.13,5.32.82,5.1,4.96-.34,6.41-.06,6.45,6.54,6.47,6.16.02,12.32-.02,18.47-.04,1.63,0,3.72.29,3.3-2.33-.61-3.83,1.6-3.9,4.39-3.83,4.99.12,9.99.08,14.98.01,2.9-.04,6.7,1.23,6.3-4.08-.08-1.02.98-1.18,1.84-1.15,2.69.11,5.42.47,5.16-3.7-.09-1.4,1.35-1.15,2.29-1.18,2.13-.07,3.97-.33,3.64-3.23-.1-.84.35-1.83,1.39-1.62,5.87,1.17,6.03-2.52,5.48-6.91Z"/>
      <path class="cls-1" d="M222.07,171.93c0,12.31-.03,24.63.03,36.94.01,2.46.27,4.7-3.42,4.13-3.85-.59-2.83,2.45-2.66,4.28.29,3.07-.69,4.24-3.81,3.84-1.97-.25-4.01-.23-5.98-.03-4.4.45-7.88.25-6.74-5.85.59-3.16-2.18-2.33-3.72-2.21-2.63.19-3.29-.71-3.28-3.32.1-25.46.06-50.92.04-76.37,0-1.87-.31-3.9,2.61-3.38,3.36.6,4.06-1.16,3.62-3.96-.49-3.08.72-4.17,3.84-3.85,2.63.27,5.34.28,7.98,0,4.32-.46,7.21.26,6.2,5.6-.18.94-.1,2.32,1.32,2.12,5.12-.72,3.95,2.88,3.96,5.62.03,12.15.01,24.29.01,36.44h.02Z"/>
      <path class="cls-1" d="M39.48,122.21c3.57,0,7.89.14,12.2-.05,2.57-.11,3.78.63,3.36,3.31-.49,3.16.22,5.21,4.06,4.48,2.38-.45,3.05.58,3.05,2.98-.08,25.61-.07,51.23-.02,76.84,0,2.08-.11,3.7-2.82,3.22-3.55-.64-4.87.87-4.25,4.32.54,3.01-.59,4.27-3.75,3.87-1.96-.25-4-.19-5.98-.03-4.1.33-7.75.45-6.47-5.56.53-2.49-1.52-2.64-3.2-2.45-2.85.32-3.18-1.08-3.17-3.5.1-25.28.07-50.56.16-75.85,0-1.35-1.11-3.92,1.7-3.78,7.14.35,2.88-5.08,5.13-7.8Z"/>
    </g>
  </g>
</svg>