<?xml version="1.0" encoding="UTF-8"?>
<svg id="Layer_2" xmlns="http://www.w3.org/2000/svg" viewBox="0 0 222.05 292.96">
  <defs>
    <style>
      .cls-1 {
        fill: #b30b06;
      }
    </style>
  </defs>
  <g id="Layer_1-2" data-name="Layer_1">
    <g>
      <path class="cls-1" d="M213.77,44.84c-1.16,5.51,1.1,7,5.45,6.26,2.18-.37,2.95.54,2.81,2.75-.17,2.82-.05,5.65-.05,8.48,0,72.55,0,145.09.02,217.64,0,2.84.59,5.75-4.11,5.04-3.11-.47-2.18,2.42-2.03,3.9.35,3.39-1.03,4.05-4.19,4.05-67.23-.09-134.46-.09-201.69,0-3.29,0-4.36-.9-3.98-4.11.22-1.81.79-4.41-2.62-3.88C.27,285.45,0,283.84,0,281.28.06,191.1.05,100.92.03,10.73c0-2.11-.23-4.16,2.93-3.58,2.93.54,3.48-1.16,3.08-3.45C5.45.32,7.18.03,9.97.03,61.06.1,112.15.12,163.24,0c3.33,0,4.6.97,4.09,4.13-.58,3.65,1.05,4.68,4.43,4.17,2.7-.41,4.95-.1,4.37,3.67-.19,1.22.45,2.43,2.01,2.16,2.89-.51,4.08,3.09,4.9,3.15,5.33.4,4.58,7.96,10.07,7.88,1.65-.02.63,2.2.87,3.37.27,1.32-.64,3.2,1.77,3.39,3.17.25,5.47.86,4.62,5.16-.37,1.85,2.2,1.4,3.5,1.24,2.45-.3,3.46.61,3.11,3.01-.79,5.43,1.76,5.97,6.78,3.51ZM12.24,145.92c0,43.92.05,87.84-.08,131.76-.01,4.05.52,5.61,5.24,5.6,63.22-.18,126.45-.16,189.67.02,4.39.01,5.07-1.44,5.07-5.3-.04-71.86,0-143.73.17-215.59,0-3.66-1.18-4.32-4.51-4.28-13.31.18-26.62-.19-39.92.21-4.7.14-5.3-1.47-5.23-5.52.24-12.81-.07-25.62.18-38.43.08-3.89-.89-4.96-4.88-4.95-46.92.15-93.84.16-140.76-.03-4.33-.02-5.07,1.24-5.06,5.25.15,43.75.09,87.5.09,131.26Z"/>
      <path class="cls-1" d="M148.93,147.93c4.11-.27,3.07,2.32,3.2,4.2.21,3.08-2.18,1.83-3.49,1.88-7.62.31-7.61.25-7.62,8,0,3.99,1.36,8.98-.54,11.63-1.32,1.84-7.13.43-10.93.54q-8.64.26-8.64-8.22c0-2.66,0-5.32,0-7.98,0-2.07.6-4.44-2.95-4.21-1.15.07-2.05-1.11-1.95-2.47.12-1.61-.3-2.44-2.15-2.41-2.29.04-3.36-1.47-3.01-3.58.43-2.57-.03-3.23-2.76-2.51-1.46.39-3.42,1.07-4.12-2.34-.74-3.56-4.77-.82-7.25-1.5-1.66-.45-2.97.11-2.69,2.27.04.33.13.84-.03.97-3.44,2.7-5.94,6.41-8.89,9.26-2.25,2.18-3.48,3.61-3.47,6.41,0,2.71.41,5.53-3.86,5.08-1.84-.2-2.79.97-2.46,2.82.74,4.14-1.54,4.66-4.84,4.29-1.28-.14-2.68-.04-3.9.34-.89.28-.53,1.43-.47,2.21.12,1.48,1.35,1.37,2.24,1.18,4.31-.88,4.61,1.6,4.27,4.82-.14,1.32-.19,2.68,0,3.99.47,3.26-.35,5.03-4.11,4.44-3.47-.54-2.69,2.2-2.51,3.92.35,3.38-.85,4.37-4.2,3.9-2.94-.41-5.98-.32-8.97-.16-4.35.22-8.37.44-7-6,.49-2.3-1.54-1.84-2.61-1.65-3.86.66-4.42-1.29-4.13-4.5.25-2.81.23-5.66.02-8.48-.26-3.52-.14-6.27,4.7-5.42,2.77.49,2.22-1.87,2.13-3.35-.14-2.2.63-2.92,2.84-2.76,2.65.2,5.32.14,7.98.04,2.36-.09,5.57,1.21,5.67-3.23.01-.51,1.86-1.34,2.89-1.39,3.49-.16,4.29-1.62,3.13-4.84-.84-2.32.36-3.47,2.82-3.07,3.08.5,4.31-.77,3.84-3.83-.07-.47-.07-1.32.16-1.43,3.38-1.55,4.09-5.36,6.18-7.44,2.29-2.28,2.56-4.09,2.58-6.62.03-3.49.12-6.99,0-10.48-.11-3.03-.27-5.78,4.16-5.1,2.19.34,1.9-1.52,1.71-2.67-.59-3.46,1.26-3.71,3.98-3.61,4.8.17,9.62.05,14.67.05-1.12,7.23-.19,14.08,1.42,20.9.28,1.2.26,2.45,1.92,2.16,3.68-.63,4.9.68,4.6,4.48-.14,1.78.89,4.16,3.92,3.53,1.39-.28,2.66-.02,2.59,1.97-.07,2.03,1.01,3.06,3.06,3.05,1.11,0,2.04.27,1.94,1.62-.18,2.39,1.22,2.5,3.12,2.58,10.77.47,10.82.52,10.88-10.26.01-2.54-.09-4.72,3.51-4.1,3.27.56,2.93-1.82,2.78-3.78-.19-2.54-.16-4.55,3.4-4.08,3.12.41,3.4-1.83,3.32-4.21-.11-3.04-.34-6.16,3.85-6.81,1.5-.23.9-1.54.95-2.4.09-1.52-1.18-1.48-2.09-1.3-4.85.95-4.97-1.94-4.65-5.43.18-1.98.17-4,0-5.98-.28-3.41.12-5.91,4.59-5.1,2.88.52,2.89-1.68,2.6-3.52-.57-3.71,1.13-4.48,4.45-4.26,4.14.27,8.33.27,12.47,0,3.01-.19,4.38.57,3.87,3.77-.4,2.56-.16,4.75,3.44,4.1,2.25-.41,2.85.71,2.72,2.82-.17,2.65-.07,5.32-.05,7.98.02,3.06.83,6.32-4.42,5.75-2.95-.32-1.65,2.68-1.7,4.19-.2,6.48-.12,6.49-6.65,6.48-1.16,0-2.35.13-3.49-.03-2.86-.41-3.77.73-3.56,3.55.2,2.62,1.07,6.13-3.81,5.27-.3-.05-.93.1-.93.16.05,4.11-3.93,5.94-5.14,8.68-1.47,3.33-1.49,6.18-6.02,5.76-.59-.06-1.26.71-2.51,1.46Z"/>
      <path class="cls-1" d="M110.18,220.78c22.31,0,44.61.1,66.92-.09,3.77-.03,4.74.92,4.68,4.66-.06,3.56-.71,4.74-4.61,4.72-44.61-.16-89.23-.15-133.84-.01-3.54.01-4.56-.88-4.33-4.37.2-3.01-.16-5.08,4.26-5.03,22.3.27,44.61.13,66.92.13Z"/>
      <path class="cls-1" d="M96.4,253.94c-17.81,0-35.61-.15-53.41.12-4.15.06-3.89-1.88-3.96-4.76-.08-3.08.15-4.67,4.09-4.63,22.13.22,44.26.11,66.39.1,13.51,0,27.03.11,40.54-.12,3.27-.05,4.32.72,4.08,4.01-.22,2.99.62,5.52-4.32,5.42-17.8-.37-35.61-.15-53.41-.14Z"/>
    </g>
  </g>
</svg>