<?xml version="1.0" encoding="UTF-8"?>
<svg id="Layer_2" xmlns="http://www.w3.org/2000/svg" viewBox="0 0 283.47 269.27">
  <defs>
    <style>
      .cls-1 {
        fill: #b30b06;
      }
    </style>
  </defs>
  <g id="Layer_1-2" data-name="Layer_1">
    <path class="cls-1" d="M108.46,191.43c-.54-1.69-1.12-3.36-1.59-5.05-.9-3.25-.94-3.33-4.11-3.66-.89-.09-1.78-.05-2.67-.13-2.62-.23-2.87-.51-3.07-3.31-.09-1.24-.04-2.5-.19-3.74-.29-2.4-1.04-3.15-3.35-3.39-1.42-.14-2.86-.09-4.27-.25-1.45-.17-2.18-.98-2.34-2.47-.09-.88-.08-1.78-.08-2.67-.03-4.48-.29-4.71-4.96-4.68-5,.03-4.85-.28-4.87-5.24q-.01-4.74,4.64-4.95c1.07-.05,2.14-.02,3.21-.11,2.52-.21,3.03-.63,3.04-3.34.02-5.52.33-5.73,5.67-5.72,2.9,0,3.38-.53,3.76-3.33.17-1.23.16-2.49.23-3.73.18-3.26.47-3.52,3.85-3.56.36,0,.73.08,1.07,0,1.69-.43,3.63,1.58,5.01-.11,1.15-1.41.4-3.45.55-5.2.19-2.13.45-2.47,2.5-2.65,1.42-.13,2.85-.12,4.27-.27,1.22-.12,1.9-.89,1.96-2.12.09-1.96.1-3.92.21-5.88.07-1.21.71-1.95,2-2.03,2.09-.13,4.58.84,6.13-.89,1.31-1.46.69-3.76.88-5.7.2-2.03.91-2.7,2.93-3.17,1.82-.43,4.35.75,5.35-1.38.7-1.49.32-3.49.42-5.27.03-.53.05-1.07.13-1.6.15-.99.75-1.56,1.75-1.7.53-.08,1.06-.11,1.59-.2q3.27-.53,3.53-4.02c.09-1.24.11-2.5.29-3.73.23-1.6.89-2.22,2.4-2.36.71-.07,1.42-.06,2.14-.05,5.32.07,5.5.08,5.43,5.31,0,.53,0,1.07.03,1.61.17,2.63.44,3.12,3.2,3.14,6.08.04,5.71,1.6,5.65,5.93,0,.53,0,1.07.04,1.6.14,1.97.41,2.19,2.61,2.58,6.4,1.13,7.82.29,8.41,8.33.15,1.98.65,2.35,2.72,2.52,1.24.1,2.5.06,3.74.15,2,.15,2.35.54,2.51,2.67.03.36.04.71.03,1.07-.09,4.87-.21,5.72,5.14,5.58,1.03-.03,2.1.31,3.12.59,1.3.37,2.14,1.26,2.38,2.62.12.7.11,1.43.24,2.13.48,2.67,1.17,3.35,3.7,3.76,1.37.22,3.02-.39,4.07.82,1.13,1.3.61,3.08.85,4.64.05.35.09.71.13,1.06.16,1.3-.45,2.05-1.7,2.22-1.23.17-2.5.16-3.72.37-2.68.47-3.32,1.25-3.39,3.88,0,.18,0,.36,0,.54,0,1.77.6,3.71-.3,5.28-1.02,1.78-3.3.8-4.9,1.53-.97.44-2.02.69-3.02,1.06-1.65.62-2.62,1.65-2.53,3.59.24,5.02-.64,4.86-5.27,4.84-1.07,0-2.14.02-3.2.11-1.01.09-1.66.73-1.71,1.72-.09,1.6.02,3.21-.04,4.81-.06,1.7-.49,2.11-2.3,2.22-1.78.11-3.57.07-5.34.23-1.59.14-2.14.77-2.25,2.44-.11,1.78-.08,3.57-.16,5.35-.06,1.24-.76,1.95-2.02,2.02-1.07.06-2.14.06-3.21.14-2.96.23-3.67,1.02-3.47,4.07.08,1.23.49,2.44.68,3.66.25,1.61-.56,2.86-2.17,3.07-1.76.23-3.55.21-5.33.36-1.24.1-1.92.9-2.03,2.08-.1,1.06-.29,2.2-.01,3.19.86,3.08-.1,3.51-3.29,3.65-2.25.1-4.97-.88-6.59,1.05-1.37,1.64-.46,4.13-.64,6.24-.18,2.07-.6,2.57-2.5,2.68-.89.05-1.78.05-2.67,0-1.76-.08-2.29-.54-2.48-2.1-.04-.35-.06-.71-.08-1.07-.14-1.94.51-4.11-.64-5.76-1.29-1.84-3.66-.8-5.51-1.23-1.19-.27-1.89-.86-1.88-2.16.02-1.6.06-3.21-.03-4.81-.13-2.15-.71-2.68-2.97-2.98-1.75-.24-3.56,0-5.27-.75Z"/>
    <path class="cls-1" d="M32.72,91c-.24-.66-.32-.82-.36-.99-.42-1.86.58-4.13-1.16-5.57-1.52-1.25-3.45-.25-5.2-.36-1.43-.09-2.28-.68-2.67-2.1-.37-1.36-1.15-2.62-1.05-4.1.11-1.48-.56-2.76-1.04-4.1-.41-1.15-1.14-1.75-2.34-1.82-.53-.03-1.07-.04-1.6-.07-1.76-.12-3.75.54-5.24-.49-1.81-1.24-.46-3.32-.63-5.02-.28-2.65-.99-3.45-3.59-3.65-2.46-.18-4.98.27-7.46-.61-.71-2.53-.21-5.01-.05-7.47.08-1.26.99-1.79,2.2-1.83,2.14-.08,4.28-.12,6.41-.26,1.61-.11,2.08-.71,2.05-2.44-.03-1.78-.16-3.56-.12-5.34.04-1.61.63-2.18,2.31-2.3,1.6-.12,3.21-.07,4.81-.18,2.75-.18,3.09-.52,3.23-3.12.09-1.6.1-3.21.18-4.81.06-1.29.81-1.91,2.06-1.96,1.6-.06,3.21-.02,4.81-.15,2.64-.22,3.82-1.44,4-4.06.12-1.78.06-3.57.25-5.34.17-1.61.85-2.16,2.39-2.36.18-.02.36-.02.53-.05,2.05-.41,4.53.89,6.14-.8,1.4-1.46.56-3.78.9-5.69.17-.96.58-1.66,1.61-1.83,2.11-.36,4.21-.74,6.32-1.06,1.27-.2,1.83-.95,1.86-2.17.07-2.32.09-4.64.2-6.95.05-1.01.68-1.65,1.69-1.7C56.83.13,59.5.04,62.18,0c1.23-.02,1.97.61,2.12,1.89.28,2.48.54,4.96.9,7.42.26,1.78,1.14,2.47,2.89,2.43.71-.02,1.41-.23,2.12-.25,4.81-.16,5.45.45,5.63,5.29.19,5.21.38,5.41,5.48,5.58.71.02,1.43,0,2.14.04,1.84.12,2.24.49,2.38,2.15.02.18,0,.36.02.53.15,1.75-.5,3.71.62,5.21,1.23,1.65,3.31.8,5.01,1.06,2.38.36,2.98.85,3.26,3.4.19,1.77.4,3.42,1.22,5.11,1.24,2.55,2.62,4.21,5.71,3.42,1.08-.28,2.1.12,3.13.44.96.3,1.54.9,1.55,1.9.02,2.15.2,4.25.84,6.33.43,1.42,1.22,2.19,2.63,2.13,2.09-.09,4.45-1,6.08.7,1.44,1.5.57,3.75.67,5.68.02.36.02.71.05,1.07.13,1.32.77,1.82,2.13,1.67,2.12-.22,4.24-.5,6.37-.63,1.21-.07,2.11.61,2.14,1.87.07,3.21.08,6.42-.02,9.63-.04,1.42-.89,2.07-2.53,2.19-1.78.12-3.56.1-5.34.16-1.28.05-1.91.78-2.04,2.01-.05.53-.13,1.07-.13,1.6.02,3.82-.58,3.86-4.6,4.06-1.04.05-2.11-.28-3.16-.46-.77-.14-1.38-.6-1.4-1.38-.05-2.77-1.72-5.34-.37-8.35.74-1.64.28-3.86.16-5.81-.13-2.08-1.2-3.38-3.18-3.75-2.99-.55-6.03-.53-9.03.03-.77.14-1.21.72-1.25,1.5-.07,1.24-.02,2.5-.15,3.74-.18,1.69-1.07,2.56-2.7,2.8-.35.05-.71.08-1.06.08-1.38,0-2.96-.65-4.02.65-.82,1-.56,2.39-.6,3.63-.03.71,0,1.43-.06,2.14-.17,2.01-.64,2.57-2.56,2.69-2.31.14-4.64.08-6.95.22-1.91.11-2.41.65-2.6,2.66-.12,1.24-.21,2.5-.13,3.74.2,3,.01,3.47-3.58,3.78-.89.07-1.78.15-2.66.25-3.04.35-3.38.69-3.57,3.5-.16,2.34.11,4.61.9,6.84,1.03,2.88,1.59,3.44,4.55,3.48,4.64.06,9.27-.01,13.91.04,2.39.03,2.76.39,2.86,2.8.08,1.96.04,3.92-.06,5.88-.06,1.33-.62,1.71-2.12,1.68-.53-.01-1.07-.11-1.6-.12-5.88-.1-6.36-.3-6.4,5.5-.01,1.93-.65,2.35-2.7,2.51-.36.03-.71.03-1.07.03-7.13.01-6.22.32-7.29-6.12-.12-.7-.1-1.43-.23-2.13-.28-1.59-.78-2.07-2.54-2.15-2.14-.1-4.28,0-6.42-.09-1.68-.07-2.2-.64-2.34-2.26-.02-.18.02-.36,0-.53-.24-1.89.71-4.14-1.01-5.56-1.43-1.17-3.44-.48-5.18-.68-2.39-.27-3.49-1.33-3.62-3.79-.11-2.13.07-4.28-.05-6.41-.11-1.96-.72-2.55-2.62-2.67-2.66-.16-5.33-.12-7.98-.96ZM31.98,51.71c-1.71,0-3.46,0-5.22,0-5.38.01-5.29-.16-5.3,5.28,0,1.07-.19,2.2.09,3.2,1.15,4.08,2.36,5.97,6.37,5.56,1.91-.2,3.9.23,5.04-2.06.26-.52,1.6-.56,2.47-.68,1.76-.26,3.54-.41,5.3-.63,1.22-.15,1.93-.89,2.02-2.1.11-1.42.07-2.85.18-4.27.15-1.99.68-2.59,2.55-2.72,1.77-.12,3.56-.04,5.34-.13,2.72-.14,3.49-.9,3.67-3.51.16-2.29-.92-5.11.53-6.75,1.7-1.92,4.69-.36,7.1-.66,2.8-.35,3.53-.98,3.05-3.69-.44-2.52-.7-4.94,1.03-7.1.61-.76.67-1.59.6-2.5-.23-2.66-.6-5.3-1.43-7.85-.31-.95-.97-1.54-1.92-1.56-4.04-.08-8.11-.55-12.14.4.22,3.34-.54,6.69,2.38,9.13.52.43-.03,1.5-.74,1.51-1.78.03-3.56-.04-5.34,0-2.54.05-3.03.62-2.88,3.27.05.89,0,1.84.32,2.64.49,1.23,1.25,2.36,2.03,3.77-.97.18-1.65.44-2.31.4-3.24-.21-6.36.36-9.47,1.16-1.96.51-2.24.81-2.51,2.83-.29,2.27.25,4.64-.84,7.07ZM84.42,41.83h0c-1.95,0-3.91-.07-5.85.03-2.02.1-2.53.63-2.67,2.52-.08,1.06-.03,2.13-.08,3.19-.12,2.97-.72,3.68-3.7,4.01-1.58.18-3.19.13-4.78.23-1.15.07-2.11.63-2.45,1.74-.85,2.8-.91,5.58.74,8.17.71,1.12,1.66,1.83,3.04,1.81,2.13-.04,4.39.35,6.35-.25,2.81-.86,5.58-.82,8.4-.89.89-.02,1.77-.06,2.65-.14,1.03-.1,1.57-.75,1.65-1.74.08-1.06.06-2.13.12-3.19q.18-3.08,3.12-3.89c2.76-.76,3.41-1.71,3.05-4.55-.18-1.41-.37-2.81-.6-4.21-.36-2.14-.91-2.69-3.15-2.82-1.95-.11-3.9-.02-5.85-.02ZM43.9,77.25c.03.92-.24,2.71.61,4.39.51,1,1.13,1.82,2.37,1.82,5.51,0,11.01.03,16.52-.02,1.24-.01,1.89-.88,1.97-2.09.09-1.42.1-2.84.17-4.26.15-2.84.59-3.31,3.46-3.5.88-.06,1.76.06,2.65.09,3.04.09,3.89-.63,4.09-3.49.31-4.37-.19-4.96-4.58-5.03-2.12-.03-4.32.35-6.16-1.08-2.53-1.97-5.42-1.31-8.21-1.2-1.21.05-1.94.93-1.87,2.16.09,1.58.42,3.15.54,4.73.12,1.62-.4,3.23-2.69,2.84-2.09-.35-4.24-.43-6.36-.45-1.9-.02-2.37.59-2.49,2.63-.03.53,0,1.07,0,2.45Z"/>
    <path class="cls-1" d="M246.59,261.05c-1,0-1.7,0-2.41,0-5.53-.01-5.45.02-5.65,5.13-.1,2.49-.37,2.75-2.76,2.94-2.13.17-4.27.16-6.41.16-6.24,0-12.48,0-18.72-.07-2.52-.03-3.15-.68-3.3-3.15-.11-1.78-.02-3.57-.14-5.35-.13-1.87-.72-2.4-2.7-2.58-1.06-.09-2.14-.05-3.21-.12-3.18-.18-3.5-.51-3.75-3.87-.11-1.42-.1-2.85-.26-4.27-.14-1.19-.88-1.94-2.12-1.99-1.6-.06-3.21-.02-4.81-.08-3.01-.11-3.12-.22-3.19-3.53-.04-1.78-.02-3.57-.08-5.35-.04-1.27-.77-1.93-2.02-1.97-1.25-.04-2.5.02-3.74-.03-1.82-.08-2.68-.71-2.92-2.45-.29-2.12-.33-4.26-.52-6.39-.23-2.6-.75-3.13-3.19-3.36-.53-.05-1.07,0-1.6-.07-2.06-.27-4.52.87-6.11-.75-1.4-1.42-.48-3.77-.87-5.68-.42-2.05-.7-2.39-2.72-2.56-2.12-.18-4.56.66-6.28-.59-1.88-1.35-.81-3.98-1.31-5.99-.09-.34-.3-.65-.38-1-.64-2.82.36-3.94,3.34-3.6,1.4.16,2.77.63,4.17.76,2.06.19,3-.64,3.13-2.66.11-1.78.04-3.57.13-5.35.06-1.26.84-1.93,2.06-2.01,1.95-.12,3.92-.14,5.87-.25,1.03-.06,1.65-.74,1.73-1.71.16-1.95.17-3.92.3-5.87.13-1.79.53-2.21,2.25-2.29,1.6-.07,3.21,0,4.81-.04,3.28-.09,3.76-.54,3.94-3.62.06-1.07,0-2.14.08-3.21.14-1.73.88-2.61,2.6-2.86,1.58-.23,3.19-.19,4.79-.34,1.16-.11,2.03-.72,2.33-1.87.5-1.88,1.22-3.67,1.09-5.73-.12-1.98.47-2.43,2.62-2.4,6.31.1,6.74.3,6.72-6.27-.01-2.9.45-3.23,3.54-3.35,1.78-.07,3.57-.01,5.33.16,1.16.11,1.97.93,2.11,2.1.2,1.59.21,3.2.31,4.8.08,1.24.85,2.02,1.96,2.22,1.57.28,3.18.34,4.78.45,1.26.09,1.91.7,2.06,1.96.24,1.94.51,3.88.87,5.8.26,1.42,1.27,2.08,2.67,2.15,1.78.1,3.57.11,5.34.29,1.5.16,2.15.92,2.23,2.48.09,1.78.06,3.57.15,5.35.06,1.21.72,2,1.99,2.07,1.78.1,3.57.05,5.34.21,2.28.2,3.06,1.04,3.27,3.42.16,1.77.19,3.56.32,5.34.09,1.26.86,1.83,2.08,1.98,2.25.29,5-.65,6.62,1.22,1.4,1.61.5,4.14.85,6.24.52,3.12.77,3.43,4.05,3.8.88.1,1.78.14,2.66.25.98.13,1.63.66,1.67,1.71.08,1.78.07,3.57.22,5.34.16,1.86.84,2.55,2.66,2.7,2.13.17,4.27.22,6.41.33,1.29.07,1.96.86,2.01,2.05.08,1.78.09,3.57-.04,5.34-.09,1.21-.94,1.87-2.16,1.93-1.6.08-3.21.08-4.81.2-2.46.2-2.95.82-3.04,3.4-.06,1.63.27,3.15.81,4.69.54,1.55-.15,2.47-1.69,2.56-1.42.09-2.85.03-4.28.08-3.23.13-3.46.37-3.63,3.82-.04.89,0,1.79-.06,2.67-.18,2.45-.74,3-3.33,3.17-1.78.11-3.57.03-5.34.17-2.19.17-3.22,1.09-3.54,3.27-.21,1.4-.18,2.84-.22,4.27-.05,1.78.02,3.58-.93,5.62ZM237.89,207.68c1.63-.71,3.04.86,4.68.41,1.08-.3,2.17-.55,2.29-1.84.31-3.42-.77-6.67-1.35-9.98-2.3-1.34-4.85-.67-7.29-.84-2.12-.15-4.27,0-6.4.09-1.24.05-1.99.83-2.02,2.03-.05,2.31.02,4.62.05,6.93.01.89-.49,1.28-1.3,1.28-2.31.02-4.63-.04-6.94.02-1.21.03-2.04.7-2.01,2,.04,2.09.17,4.18.27,6.23-.98.78-2.09.49-3.13.56-1.42.09-2.85.06-4.27.23-3.63.44-3.85.71-3.94,4.26-.05,1.96-.02,3.92-.1,5.88-.04.98-.6,1.66-1.63,1.79-.88.11-1.77.16-2.66.19-5.47.21-5.75-.35-5.74,6.18,0,.71,0,1.43.05,2.14.28,3.47.73,4.04,4.46,4.61,1.7.26,2.56.95,2.68,2.66.05.73.4,1.4,1.19,1.58,1.58.35,3.25.58,4.71-.15,1.32-.66.91-2.17,1.03-3.37.05-.53.02-1.07.1-1.6.15-.99.75-1.56,1.76-1.66.53-.05,1.07-.05,1.6-.14,2.58-.46,2.84-.76,2.91-3.51.04-1.9,0-3.81,0-5.66q4.04-1.58,7.26-.93c.7.14,1.38.35,2.09.45,2.1.29,3.05-.41,3.25-2.45.12-1.24.1-2.49.17-3.74q.19-3.56,3.53-3.81c.18-.01.36,0,.53-.01,3.46-.26,3.6-.38,3.63-3.74.01-1.77.24-3.58-.64-5.25.39-.28.78-.56,1.16-.84ZM228.08,258.64v.17c1.07,0,2.14,0,3.21,0,6.21-.02,6.22-.22,6.07-5.77,0-.18,0-.36,0-.54.12-3.45.35-3.7,3.59-3.83,1.25-.05,2.5,0,3.74-.08,1.68-.12,2.28-.69,2.46-2.21.32-2.62-.33-5.32.62-7.89,2.68-1.45,5.58-.45,8.36-.76,2.6-.28,3.17-.71,3.32-3.17.08-1.24.04-2.5.03-3.75,0-1.04.53-1.67,1.51-1.89.52-.11,1.07-.06,1.59-.15,2.16-.39,2.51-.68,2.57-2.63.08-2.5.09-5,.03-7.49-.05-1.97-.65-2.62-2.5-2.75-2.31-.16-4.63-.22-6.95-.26-1.96-.03-3.92.03-5.88.09-1.25.04-1.92.79-2.12,1.98-.09.53-.08,1.07-.13,1.6-.17,1.57.52,3.47-.75,4.61-1.22,1.1-3.08.51-4.67.63-3.03.24-3.34.6-3.57,3.45-.18,2.29.99,5.01-.43,6.76-1.71,2.09-4.7.75-7.13,1.01-2.52.28-3.46,1.03-3.64,3.63-.13,1.77.03,3.57,0,5.35-.02,1-.58,1.65-1.6,1.81-.53.08-1.07.09-1.6.09-7.35-.05-6.67-.04-6.68,7.29,0,.53,0,1.07.05,1.6.19,1.96.97,2.91,3.02,3.05,2.48.17,4.99.04,7.48.04ZM185.78,206.61c-2.88.12-5.35.15-7.8.36-1.61.13-2.66,1.25-2.58,2.85.14,2.48.46,4.95.82,7.41.1.68.63,1.35,1.4,1.44,2.05.24,3.24,1.22,3.29,3.39.03,1.57,1.18,2.11,2.45,2.35,1.74.33,3.5.65,5.26.77,1.85.14,3.09-.07,3.13-2.52,0-.36.05-.71.05-1.07-.01-2.56.76-4.53,3.64-5.02,1.32-.22,1.62-1.21,1.63-2.36,0-.89-.04-1.78-.02-2.67.07-4.83.93-5.73,5.87-6.06.88-.06,1.78-.02,2.67.02,2.54.12,3.09-1.59,2.68-3.46-.23-1.04-.69-2.02-.94-3.06-.39-1.64-1.5-2.31-3.05-2.49-3.86-.43-7.71-.95-11.58-1.28-1.76-.15-3.55.02-5.32.16-1.18.1-1.95.83-2.03,2.07-.18,2.84-.2,5.68.45,9.15ZM207.61,186.2c.95-1.26,1.88-.94,2.7-.94,3.55.03,7.1.16,10.66.18,3.37.02,3.93-.62,3.89-4.13-.02-1.25-.11-2.45-.59-3.65-.59-1.47-1.47-2.43-3.11-2.43-4.62-.02-9.24-.06-13.85.02-1.56.03-2.17.8-2.34,2.34q-.59,5.32-5.67,5.78c-.18.02-.35.03-.53.04-1.24.06-1.96.71-2.12,1.94-.25,1.96-.1,3.86.52,5.78,1.12,3.47,1.74,4.13,5.14,4.12,3.87-.01,7.72-.58,11.61-.2,1.55.15,2.12-.72,1.93-2.38q-.69-5.77-6.76-6.08c-.34-.02-.68-.17-1.47-.38Z"/>
    <path class="cls-1" d="M234.73,124.29c-5.88,0-11.76.05-17.64-.02-2.64-.03-3.04-.52-3.13-3.18-.08-2.49,0-4.99-.1-7.49-.07-2.05-.59-2.6-2.5-2.68-1.78-.07-3.56,0-5.34,0-1.29,0-1.86-.69-2.04-1.95-.26-1.86.68-4.15-1.26-5.45-1.52-1.02-3.47-.49-5.23-.53-5.55-.12-5.55-.1-5.7-5.69-.02-.71,0-1.43-.03-2.14-.13-3.16-.34-3.4-3.29-3.58-1.07-.07-2.14-.02-3.2-.12-2.57-.25-3.41-1.35-3.01-3.87.08-.52.38-1.01.42-1.53.08-1-.38-1.8-1.4-1.92-1.41-.17-2.84-.16-4.26-.22-3.49-.14-3.88-.47-4.22-4-.17-1.77-.11-3.56-.24-5.34-.15-2.09-.57-2.53-2.55-2.65-1.6-.1-3.21-.04-4.81-.13-1.96-.12-2.42-.57-2.49-2.68-.1-3.03-.08-6.06-.08-9.09,0-7.84,0-15.69.01-23.53,0-1.43.02-2.85.12-4.27.07-.95.54-1.77,1.59-1.82,4.8-.23,9.61-.32,14.4.2,1.14.12,1.89.7,2.17,1.97.45,2.09.84,4.16.89,6.32.04,1.66.63,2.03,2.33,2.3,2.41.39,5-.62,7.27.89.39,2.44.79,4.87,1.18,7.31.03.18.05.35.06.53.14,1.42.85,2.28,2.33,2.44,1.42.15,2.82.41,4.24.49,2.93.16,3.94.83,3.8,3.81-.07,1.42.11,2.85.24,4.27.2,2.16.52,2.48,2.53,2.65,1.59.13,3.21.11,4.78.37,1.31.21,2.24.96,2.26,2.52.02,1.6.11,3.21.31,4.8.23,1.81,3.15,2.86,4.66,1.7.59-.46.74-1.18.75-1.91.03-2.85,0-5.71.13-8.55.14-2.82.7-3.26,3.63-3.38.36-.02.71,0,1.07,0,5.49.08,5.59.03,5.47-5.71-.04-1.77-.48-3.52-.59-5.29-.15-2.49.55-3.24,2.95-3.39,1.07-.07,2.14,0,3.21-.07,3.29-.21,3.89-.83,4.03-4.29.08-1.96-.02-3.92.05-5.88.09-2.45.52-2.9,2.73-3.04,2.81-.17,5.58-.24,8.41-.79,2.62-.51,5.58.55,8.36,1.08.54.1,1.04.9,1.38,1.48.25.43.27,1.03.28,1.56.03,4.99.04,9.98.04,14.97,0,1.43-.54,2.31-2.21,2.52-2.29.28-4.62.18-6.93.32-3.15.19-3.68.73-4.05,3.76-.19,1.56.53,3.48-.69,4.62-1.35,1.26-3.38.62-5.12.73-.36.02-.71,0-1.07,0q-5.17.08-5.27,5.25c-.1,5.06-.71,5.69-5.93,5.97-1.6.08-3.21.07-4.81.18-1.26.09-1.96.92-1.95,2.12.04,2.67.16,5.33.35,7.99.08,1.13,1.06,1.7,2.4,1.33,1.21-.33,2.3-.7,3.62-.41,4.16.92,4.74,1.41,4.47,5.74-.31,4.81-.21,5.14,4.8,5.11.89,0,1.79-.05,2.67.03,3.67.36,4.49.81,4.43,4.47-.02,1.04.44,2.09.48,3.14.12,3.08.69,3.49,4.06,3.34,7.4-.33,6.74.32,6.81,6.62.03,3.03,0,6.06-.14,9.09-.09,1.9-.73,2.54-2.7,2.56-6.06.07-12.12.03-18.17.03,0,.01,0,.03,0,.04Z"/>
    <path class="cls-1" d="M101.63,218.51c0,4.09.04,8.19-.01,12.28-.06,4.79-.1,4.79-4.63,4.94-1.07.03-2.13.04-3.2.08-1.24.05-1.93.69-2.11,1.93-.16,1.05-.32,2.11-.62,3.13-.37,1.27-1.44,1.43-2.57,1.32-1.05-.1-1.56-.76-1.61-1.75-.06-1.24-.07-2.49-.09-3.73-.03-1.61-.29-3.14-.77-4.7-.54-1.77-1.33-2.81-3.28-2.77-1.36.02-2.42-.53-2.81-1.96-.57-2.09-2.07-2.66-4.05-2.64-1.47.02-2.26-.79-2.35-2.3-.07-1.15-.76-1.74-1.76-2.39-2.62-1.68-5.59-3.1-6.5-6.57-.27-1.02-1.4-.99-2.26-1.02-1.6-.06-2.83-.53-2.81-2.4.03-2.18-1.02-3.21-3.17-3.34-.94-.06-1.8-.67-1.98-1.56-.45-2.24-1.96-2.7-3.9-2.74-.71-.01-1.5-.25-1.75-1-.62-1.86-2.05-2.16-3.75-2.35-2.83-.32-4.29-2.02-4.43-4.81-.04-.81.53-1.3,1.1-1.7.27-.19.7-.13,1.02-.27,1.91-.86,5.17,1.96,5.87-2.42.34-2.13,2.34-3.76,2.13-6.33-.18-2.19.38-2.6,2.37-2.61,7.47-.04,14.94,0,22.42.03.7,0,1.42.13,2.1.3,2.6.66,3.11,1.39,3.28,4.03.13,2.08-.86,4.55.8,6.11,1.42,1.33,3.76.5,5.65.95.69.16,1.41.14,2.11.25.8.12,1.28.7,1.4,1.42.25,1.58.32,3.18.57,4.76.34,2.12,1.49,2.92,3.77,2.68.88-.09,1.75-.33,2.63-.38,2.91-.17,3.18,1.1,3.18,3.11,0,4.81,0,9.61,0,14.42h0Z"/>
    <path class="cls-1" d="M283.42,36.64c0,2.84.04,5.69-.02,8.53-.02,1.21-.72,2.03-1.98,2.06-7.44.21-7.41.73-7.35-6.45,0-.53.02-1.07.02-1.6,0-1.91,1.1-3.99-.33-5.67-1.18-1.39-3.18-1.38-4.84-1.9-.98-.3-1.5-.85-1.67-1.81-.34-1.89-1.52-2.52-3.38-2.66-2.48-.19-2.47-.33-3.05-2.59-.7-2.77-.85-2.97-3.44-3.1-2.48-.13-4.98-.04-7.46-.17-2.24-.11-2.77-.65-2.76-3,.02-7.49-.49-7.2,6.75-7.2,3.73,0,7.47-.04,11.2.04,3.11.07,3.37.37,3.59,3.29.01.18,0,.36.02.53.15,1.22.03,2.57.53,3.62.61,1.29,2.22.74,3.38,1,1.9.42,3.38,1.31,3.77,3.28.42,2.13,1.56,3.05,3.69,2.85.35-.03.71,0,1.06.05,1.7.24,2.23.68,2.28,2.33.08,2.84.02,5.69.02,8.53-.01,0-.02,0-.03,0Z"/>
    <path class="cls-1" d="M96.88,99.18c.29,6.07.26,6.11-5.02,6.11-.53,0-1.07,0-1.6,0-3.76-.12-4.14-.45-4.55-4.32-.22-2.1-.29-4.22-.43-6.33,1.88-1.49,4.1-.63,6.16-.87,2.29-.27,2.78-.66,2.98-2.89.03-.35.05-.71.05-1.07-.03-6.9.4-6.07,6.77-6.13,4.87-.04,4.87.03,4.9,5.14,0,.53,0,1.07,0,1.6q-.08,4.88-5.27,4.07c-.7-.11-1.41-.12-2.12-.11-1.6.04-2.23.7-2.12,2.28.07,1.06.21,2.12.25,2.52Z"/>
    <path class="cls-1" d="M236.73,208.52c-.17-.52-.23-1.06.34-1.31.17-.08.54.3.82.47-.39.28-.78.56-1.16.84Z"/>
  </g>
</svg>