<?xml version="1.0" encoding="UTF-8"?>
<svg id="Layer_2" xmlns="http://www.w3.org/2000/svg" viewBox="0 0 268.98 265.67">
  <defs>
    <style>
      .cls-1 {
        fill: #b30b06;
      }
    </style>
  </defs>
  <g id="Layer_1-2" data-name="Layer_1">
    <path class="cls-1" d="M235.81,187.92c.27,3.98,2.47,8.29-4.3,8.29-2.19,0-1.06,2.45-1.1,3.71-.11,3.59-.13,6.64-5.33,5.95-4-.53-2.76,3-2.62,4.93.26,3.56.37,6.06-4.59,4.73-2.91-.79-1.95,2.15-1.8,3.32.44,3.56-.87,4.78-4.34,4.29-2.22-.32-4.5-.35-4.17,3.05.03.26-.27.74-.51.81-3.54,1.01-7,2.05-5.93,6.97-.78.15-1.55.4-2.33.42-2.99.05-6.01.24-8.98-.02-3.71-.33-6.21.21-5.35,4.82.41,2.21-1.01,2.38-2.71,2.32-2.16-.08-4.34.14-6.49-.05-3.28-.29-5.57.15-4.82,4.34.5,2.8-1.69,2.22-3.24,2.23-8.15.03-16.31.11-24.46-.03-2.56-.04-3.51.64-3.34,3.32.23,3.65-.08,7.32.09,10.98.12,2.56-.57,3.76-3.32,3.27-1.13-.2-2.34-.21-3.48-.05-2.71.37-3.9-.43-3.64-3.42.28-3.3-.13-6.67.13-9.97.24-3.13-.61-4.28-4-4.17-8.48.26-16.97.01-25.46.14-2.43.04-3.85-.38-3.37-3.18.47-2.74-.93-3.45-3.41-3.27-2.15.16-4.33-.06-6.49.09-3.82.28-7.11.18-5.95-5.23.37-1.72-.67-2.28-2.34-2.2-2.49.11-4.99.04-7.49.03-.96,0-2.38.21-2.16-1.22.65-4.16-1.77-4.64-4.94-4.54-2.02.06-3.26-.98-3.03-3.03.34-3-1.07-3.85-3.73-3.44-3.12.48-4.79-.45-4.15-3.95.45-2.43-.78-3.23-3.09-3.12-1.9.09-3.48-.8-3.21-2.88.45-3.48-1.07-4.46-4.19-3.99-2.09.31-2.43-.65-2.96-2.66-.63-2.38,1.18-8.12-5.21-5.56-1.26.5-1.65-.62-1.65-1.74,0-1.66-.11-3.34.03-4.99.28-3.34-.02-5.98-4.52-5.08-1.91.38-2.59-.49-2.52-2.48.15-4.15-.12-8.33.12-12.47.17-2.93-.51-4.47-3.75-3.89-3.22.58-3.94-1.14-3.9-3.97.1-7.49-.08-14.98.07-22.46.05-2.69-.52-3.98-3.52-3.65-2.47.27-4.99.05-7.48.05-6.51,0-7.75-1.69-6.42-8.15.39-1.88,1.45-1.92,2.83-1.91,3.16.01,6.34-.19,9.48.07,3.66.31,5.29-.49,5.04-4.75-.42-7.3.05-14.64-.19-21.95-.11-3.4.75-5.05,4.36-4.41,2.96.53,3.66-.93,3.5-3.62-.2-3.3-.05-6.63-.05-9.97,6.88.76,6.94.76,6.86-6.3-.04-3.12-.47-6.24,4.37-5.31,1.75.34,1.71-1.08,1.72-2.27,0-1.66.18-3.35-.03-4.99-.44-3.45.36-5.43,4.4-4.65,2.28.44,3.96-.17,3.7-3.06-.12-1.37-.02-2.81,1.98-2.62,3.46.32,4.37-1.53,4.04-4.57-.33-3.01,1.34-3.75,3.93-3.37,2.78.41,4.59-.23,3.99-3.6-.4-2.28.75-2.85,2.84-2.71,2.32.16,4.66,0,6.99.05,2.33.04,4.86.46,4.31-3.3-.13-.89.31-1.58,1.39-1.59,3.54-.03,5.04-1.78,4.54-5.31-.25-1.73.99-1.79,2.22-1.79,2.33,0,4.67-.11,6.99.02,3.55.19,6.73.36,5.77-4.92-.52-2.84,1.99-1.99,3.42-2,8.32-.06,16.65-.28,24.96.07,3.92.17,4.79-1.12,4.52-4.72-.32-4.3.14-8.66-.14-12.97-.22-3.32.56-4.34,4.18-4.57,5.18-.34,6.66,1.33,6.06,6.27-.44,3.61.11,7.32-.14,10.97-.25,3.65.6,5.27,4.79,5.03,7.13-.4,14.31-.02,21.46-.16,2.68-.05,4.54.1,4.02,3.59-.37,2.45.86,3.73,3.5,3.45,1.15-.12,2.33.05,3.49-.03,4.34-.3,9.22-.59,11.67,3.38,2.41,3.9,5.5,2.39,8.38,2.55,2.56.14,4.7-.02,4.03,3.58-.64,3.41,1.49,4.27,4.09,3.4,2.9-.97,3.27.25,3.36,2.59.09,2.27,1.12,4.02,3.72,3.26,3.32-.97,3.9.63,3.72,3.36-.27,3.96.44,7.02,5.59,6,1.47-.29,2.26.56,2.1,1.97-.36,3.4,1.28,4.39,4.35,3.89,3.32-.55,2.94,1.8,2.75,3.74-.36,3.74.03,6.65,4.97,5.99,1.81-.24,2.16.94,2.08,2.5-.09,1.83.17,3.68-.04,5.49-.37,3.23.35,5.16,4.14,4.55,2.41-.39,3.17.8,3.04,3.15-.18,3.15-.13,6.32-.03,9.48.07,2.37-1.16,5.68,3.8,4.39,1.87-.49,1.99,2.11,1.99,3.8-.01,6.82.1,13.65-.07,20.46-.06,2.57.63,3.5,3.31,3.38,4.48-.22,9,.15,13.47-.12,3.11-.19,3.15,1.5,2.85,3.59-.31,2.13,1.45,5.41-2.94,5.43-4.47.02-8.95.35-13.42.2-2.73-.09-3.31.9-3.26,3.42.15,7.82,0,15.64.09,23.46.03,2.16-.27,3.63-2.9,3.15-2.98-.55-3.13,1.2-3.04,3.47.14,3.49-.27,7.02.11,10.47.44,4.04-1.07,5.42-4.92,4.81-.8-.13-1.64-.02-2.77-.02ZM74.41,172.56q-7.05.29-7.04-6.29c0-2.66.02-5.32,0-7.98,0-1.12.25-2.75-1.53-2.41-5.16.98-4.55-2.39-4.48-5.54.07-2.99-.13-6,.06-8.98.15-2.46-.79-3.1-3.14-3.03-8.3.27-16.6.4-24.9.48-1.75.02-2.81.22-2.74,2.37.17,5.47.2,10.95.21,16.43,0,1.68.68,2.65,2.34,2.33,5.39-1.03,5.91,2,5.48,6.18-.24,2.3-.03,4.65-.04,6.98,0,1.38-.03,3.04,1.92,2.66,4.69-.91,4.1,2.17,4.05,4.99-.04,2.66,0,5.32-.02,7.98-.03,2.9-.91,6.12,4.17,5.49,2.72-.34,1.6,2.39,1.63,3.76.06,2.59.22,4.7,3.72,4.1,2.78-.48,3.96.74,3.63,3.58-.39,3.45,1.21,4.91,4.67,4.44,2.16-.29,3.63.32,3.23,2.92-.56,3.58,1.42,4.2,4.41,3.99,1.48-.1,3.92-.69,3.67,1.92-.41,4.34,2.1,4.33,5.15,4.24,2.79-.08,6.22-1,5.76,4.02-.15,1.65,1.77,1.06,2.79,1.08,4.32.07,8.66.19,12.97-.01,2.62-.12,3.76.67,3.28,3.32-.49,2.76.86,3.35,3.36,3.29,6.15-.15,12.31-.15,18.46,0,2.44.05,3.55-.39,3.49-3.22-.18-7.81-.14-15.63.03-23.45.05-2.47-.76-3.16-3.12-3.08-4.65.15-9.31-.03-13.97.08-1.88.04-2.91-.45-2.5-2.47.89-4.34-1.48-4.98-4.99-4.62-1.81.19-3.67-.13-5.48.07-2.71.29-4.1-.51-3.6-3.46.49-2.89-1.67-3.25-3.32-2.57-3.81,1.56-4.24.49-4.9-3.36-.59-3.47-5.92-4.66-6.9-8.73-5.88.62-6.47-3.03-5.83-7.51ZM138.49,219.56c0,3.66.16,7.33-.05,10.98-.19,3.22.89,4.47,4.24,4.36,6.32-.21,12.65-.17,18.97-.01,2.66.07,4.13-.5,3.63-3.49-.41-2.42.68-3.17,3.07-3.07,3.99.16,7.99,0,11.98-.05,1.47-.02,3.2.27,3.01-2.11-.31-3.94,2.41-3.94,5.16-4.15,1.42-.11,3.97.98,3.72-1.77-.35-3.96,2.13-3.18,4.39-3.24,2.81-.06,5.9.17,5.78-4.1-.06-2.18,1.6-1.79,2.81-1.66,2.3.24,2.66-.75,3.37-2.88.79-2.36-.83-6.75,3.03-6.93,5.07-.24,4.79-3.1,4.62-6.5-.09-1.83.09-3.67-.04-5.49-.14-1.94.56-2.85,2.52-2.53,3.99.66,4.91-1.35,4.51-4.85-.22-1.97,0-3.99-.05-5.99-.03-1.37.32-2.37,1.91-2.06,5.64,1.09,5.31-2.57,5.14-6.27-.12-2.66.03-5.32-.04-7.99-.04-1.67.57-2.63,2.29-2.31,4.76.88,4.96-1.89,4.73-5.44-.23-3.48-.17-6.99-.02-10.48.1-2.18-.66-2.86-2.83-2.85-8.32.05-16.64.04-24.96-.15-2.87-.06-3.27,1.29-3.18,3.66.14,3.66.03,7.32.03,10.98,0,1.5.22,3.43-1.64,3.71-6,.89-5.33,5.34-5.14,9.38.13,2.83-.32,4.55-3.67,3.92-2.81-.53-3.93.67-3.54,3.5.36,2.57-.87,4.31-3.13,5.42-4.04,1.99-6.12,6.72-7.12,9.74-1.34,4.05-2.78,3.87-5.82,4.24-2.94.36-8.4-3.04-7.91,4.21.06.92-1.22.85-2.03.86-1.66.02-3.34.12-4.99-.02-3.14-.25-5.75-.11-4.83,4.26.56,2.68-1.1,2.9-3.2,2.84-3.82-.11-7.66.12-11.48-.1-2.73-.16-3.44.92-3.32,3.45.17,3.65.04,7.32.05,10.98ZM221.22,129.93c4.16,0,8.31-.02,12.47.01,1.81.01,3.42-.18,3.43-2.52.02-3.82,0-7.65.02-11.47,0-1.28-.63-1.83-1.83-1.66-6.02.83-5.35-3.02-4.94-6.86.18-1.69-.16-3.42-.05-5.12.18-2.9.2-5.46-3.95-4.83-2,.3-1.99-1.1-1.95-2.54.07-2.16-.04-4.32.04-6.48.07-1.78-.4-3.08-2.44-2.72-4.6.82-5.1-1.64-4.65-5.31.28-2.29-.06-4.66.13-6.97.18-2.24-.3-3.59-2.87-3.26-3.63.46-4.85-1.42-4.41-4.72.36-2.75-.95-3.6-3.43-3.26-3.51.49-5-1.07-4.57-4.52.26-2.04-.73-2.59-2.58-2.47-1.66.11-3.34-.13-4.98.04-3.44.36-5.47-.86-5.27-4.53.11-2.11-.91-2.5-2.69-2.41-2.16.1-4.32-.01-6.48.04-1.33.03-2.58-.32-2.29-1.83,1.1-5.66-2.81-4.55-5.94-4.55-2.66,0-5.33-.13-7.98.04-2.61.17-4.2-.4-3.71-3.46.4-2.52-1.27-2.51-3.07-2.5-5.49.03-10.98.09-16.46-.08-2.62-.08-3.45.8-3.32,3.42.38,7.44.77,14.9.67,22.35-.05,3.54,1.32,4.17,4.35,4.02,3.81-.19,7.66.18,11.47-.07,2.84-.18,3.99.7,3.51,3.53-.51,3.02,1.06,3.73,3.7,3.43,1.31-.15,2.67.06,3.99-.06,2.83-.25,5.01.04,4.31,3.82-.31,1.64.04,2.73,2.26,2.8,3.18.1,7.86-.78,6.6,4.88-1.28,5.76,6.85.65,6.17,5.91-.33,2.59,1.47,4.85,4.95,4.12,2.38-.5,3.25.59,3.03,2.98-.19,2.1.22,5.68,1.59,5.62,6.64-.3,4.28,4.36,4.21,7.24-.08,3.47.87,4.9,4.42,4.29,2.4-.42,3.58.37,3.61,3.17.04,4.08-1.95,9.81.84,11.81,2.88,2.06,8.28.61,12.57.69.5,0,1,0,1.5,0ZM45.42,129.96c4.49,0,9.78,1.48,13.27-.38,4.13-2.2.94-8,1.73-12.15.03-.16.01-.33,0-.5-.06-1.18.38-2.06,1.67-1.82,5.35,1.03,4.34-2.69,4.33-5.69-.01-2.66.2-5.35-.06-7.98-.32-3.23.73-4.75,4.08-4.14,3.45.63,4.37-1.04,3.95-4.12-.13-.98.11-2.01-.05-2.99-.51-3.28.79-4.59,4.06-4.04,2.45.41,3.92-.39,3.35-3.15-.77-3.74,1.34-4.11,4.24-3.89,1.99.15,3.99.03,5.99.03,1.18,0,2.67.07,2.34-1.65-1.14-5.99,3.08-4.72,6.31-4.79,2.33-.05,4.66-.02,6.99-.04,1.38-.01,2.96-.05,2.55-2.04-1.12-5.36,2.36-4.94,5.77-4.85,3.33.09,6.66-.04,9.98.04,1.93.05,3.07-.22,3.01-2.66-.17-8.15-.16-16.31-.12-24.46,0-1.86-.54-2.7-2.54-2.68-6.49.08-12.98.02-19.47.03-1.22,0-2.72.21-2.22,1.79,1.45,4.62-1.88,3.32-4.02,3.38-2.99.09-6,.16-8.98-.02-2.67-.15-4.73.04-4.09,3.55.44,2.39-.89,2.78-2.87,2.65-1.82-.12-3.67.12-5.49-.05-2.58-.24-4.1.28-3.72,3.38.43,3.48-2,3.79-4.51,3.46-3.42-.46-4.98.68-4.35,4.27.48,2.79-.24,4.59-3.59,3.91-3.94-.79-5.07,1.13-4.42,4.64.57,3.1-1.04,3.72-3.63,3.33-3.18-.49-5.13.25-4.53,4.09.27,1.71-.66,3.01-2.56,2.89-3.65-.24-4.04,1.99-3.95,4.79.08,2.49-.04,4.99.06,7.49.07,1.76-.25,3.05-2.38,2.68-4.06-.71-4.21,1.71-3.99,4.68.16,2.15-.14,4.34.08,6.48.3,2.92-.46,4.49-3.73,3.86-2.76-.53-3.31.85-3.23,3.35.17,5.32.14,10.65-.04,15.97-.09,2.52.49,3.61,3.27,3.43,3.81-.24,7.65-.06,11.48-.07ZM128.95,170.94h-.08c0-6.48.02-12.97-.01-19.45,0-1.36.71-3.37-1.78-3.2-3.44.23-3.83-1.82-3.64-4.42.29-3.88-5.08.11-4.94-3.56.01-.32-.13-.65-.16-.98-.17-1.55-1.24-1.72-2.51-1.72-13.13,0-26.27,0-39.4-.05-1.77,0-2.87.51-2.82,2.52.06,2.16.07,4.32.02,6.48-.03,1.35.35,2.57,1.85,2.24,6.18-1.33,5.61,2.66,5.51,6.58-.06,2.48.56,4.99.37,7.45-.24,3.06.84,4.48,3.87,4.11,2.8-.34,3.38,1.01,3.23,3.46-.17,2.84-.44,5.89,4.04,5.58,1.23-.09,1.5,1.34,1.45,2.24-.24,3.99,2.25,3.99,5.13,3.92,1.25-.03,3.59-.87,3.45,1.51-.29,5.09,3.05,4.33,6.23,4.56,1.57.11,4.62-1.75,4.56,1.77-.05,3.07,1.52,3.07,3.68,3.01,2.99-.08,5.99-.16,8.98.02,2.44.15,3.1-.74,3.04-3.12-.16-6.31-.05-12.63-.05-18.95ZM137.8,171.38h-.11c0,3.49,0,6.99,0,10.48q.02,11.76,11.73,11.13c.5-.03,1,0,1.5-.04.7-.04,1.48-.25,1.35-1.06-.69-4.19,2.63-3.38,4.87-4.21,2.2-.81,6.23.27,5.36-4.45-.19-1.04,1.01-1.26,1.7-1.45,2.33-.66,4.68-.99,4.72-4.34,0-.77,1.68-1.79,2.87-1.53,5.81,1.31,5.01-2.37,4.85-5.97-.07-1.54-1.46-4.59,2.24-4.01,4.13.65,4.87-1.38,4.33-4.75-.54-3.42.28-5.49,4.35-4.72,3.04.58,3.57-1.16,3.45-3.74-.15-3.49-.25-7,.04-10.47.26-3.24-1.06-3.85-4-3.82-10.48.11-20.96-.02-31.43-.1-2.65-.02-5.65-.96-5.74,3.49-.02,1.26-1.37,2.19-2.98,1.94-5.33-.82-2.61,3.48-3.61,5.49-1.05,2.12-6.35-.92-5.45,4.15.09.48,0,1,0,1.49,0,5.49,0,10.98,0,16.47ZM97.44,129.21v-.05c7.32,0,14.64-.09,21.96.04,2.9.05,4.41-.71,4.09-3.92-.13-1.28-.68-3.36,1.86-3.09,3.96.42,3.69-2.18,3.67-4.79-.07-8.98-.09-17.97-.11-26.95q-.03-12.97-12.92-12.16c-.17.01-.33.02-.5,0-1.63-.18-2.7.42-2.39,2.18.85,4.85-2.13,4.87-5.59,4.8-1.35-.03-4.13-1.12-3.85,1.49.54,5.02-2.39,4.85-5.65,4.49-3.17-.35-5.13.26-4.49,4.12.4,2.39-.78,4.06-3.34,3.72-3.71-.48-4.13,1.5-3.84,4.36.25,2.44-.71,3.94-3.35,3.65-2.7-.3-2.96,1.24-2.88,3.32.09,2.33-.22,4.69.11,6.98.45,3.12-.59,4.3-3.68,3.82-3.98-.62-2.94,2.28-3.15,4.44-.27,2.77.66,3.71,3.58,3.62,6.81-.23,13.64-.07,20.46-.07ZM191.57,128.58c0-3.21-.26-6.37.06-9.47.45-4.31-.67-6.66-5.48-5.71-3.44.69-4.18-1.01-3.99-4.07.09-1.42.92-4.39-.84-4.21-6.79.69-4.32-4.07-4.63-7.12-.2-1.95.41-4.4-2.83-3.83-4.99.89-6.44-5.25-10.9-5.32-.11,0-.34-.6-.3-.89.67-4.79-2.76-3.84-5.4-3.78-2.71.06-5.49.52-4.73-3.78.31-1.73-.77-2.29-2.39-2.25-2.66.06-5.34.18-7.98-.04-2.95-.25-4.03.56-3.96,3.79.27,11.63.18,23.26.29,34.89.02,2.57-1.15,6.05,3.73,5.51,1.04-.12,1.15,1.02,1.1,1.84-.26,3.68-.05,6.61,4.7,3.42.35-.23,1.07-.22,1.46-.01,6.95,3.56,14.38.68,21.49,1.65,6.8.92,13.38-1.95,20.6-.6Z"/>
  </g>
</svg>