<?xml version="1.0" encoding="UTF-8"?>
<svg id="Layer_2" xmlns="http://www.w3.org/2000/svg" viewBox="0 0 307.5 177.72">
  <defs>
    <style>
      .cls-1 {
        fill: #b30b06;
      }
    </style>
  </defs>
  <g id="Layer_1-2" data-name="Layer_1">
    <g>
      <path class="cls-1" d="M307.47,36.21c.03-5.34-1.45-6.34-6.52-6.33-96.64.16-193.3.12-289.95.12h-3.17c-1.25,0-2.5-.06-3.75,0-.08,0-.16,0-.24,0-.28.02-.53.02-.76,0h-.66C1.08,30,0,31.08,0,32.42c0,44.85.02,89.72.02,134.57,0,1.34,1.08,2.42,2.42,2.42h5.17c1.34,0,2.42,1.08,2.42,2.42v3.33c0,1.33,1.08,2.42,2.41,2.42,15.81.03,31.63.06,47.45.08h.95c44.14.04,88.29.01,132.44.01,33.46,0,66.91,0,100.37.02,2.77,0,5.75.78,5.31-3.96-.23-2.48,2.05-3.15,4.27-2.77,3.71.64,4.19-1.19,4.18-4.42-.1-43.44-.18-86.87.07-130.31ZM82.85,99.04c0,12.8-.07,25.6.05,38.39.03,2.69-.54,3.71-3.5,3.69-17.29-.14-34.58-.13-51.86-.01-2.87.02-3.96-.9-3.53-3.68.39-2.54-.55-3.71-3.26-3.38-2.87.36-3.86-1.2-3.65-3.88.1-1.33-.14-2.68.04-3.99.52-3.76-.25-6.15-4.81-5.26-2.65.53-3.32-.75-3.3-3.29.12-12.13.1-24.27.02-36.4,0-2.21.4-3.49,2.96-3.24,4.42.43,5.71-1.85,5.01-5.89-.22-1.3.04-2.67-.14-3.98-.44-3.13-.79-5.91,4-4.91,1.96.41,3.29-.97,3.06-2.95-.42-3.7,1.88-3.42,4.32-3.4,16.79.12,33.57.29,50.36.18,3.65-.02,4.35,1.28,4.31,4.61-.19,12.46-.08,24.93-.08,37.39ZM205.91,137c.02,3.28-.91,4.13-4.14,4.1-16.63-.16-33.26-.07-49.89-.07h0c-16.46.01-32.93-.07-49.39.09-3.26.03-4.56-.48-4.53-4.2.18-24.94.19-49.88,0-74.82-.03-4.11,1.04-5.21,5.21-5.21,32.76.02,65.52-.19,98.27-.48,3.32-.02,4.5.62,4.48,4.27-.18,25.44-.15,50.88-.02,76.32ZM289.6,117.78c.01,2.31-.72,3.55-3.12,3.14-3.44-.6-4.3,1.02-3.93,4.09.2,1.64-.07,3.33.07,4.98.18,2.22-.28,3.5-2.93,3.09-3.01-.47-4.44,1.01-3.98,4.01.53,3.42-1.03,3.99-4.14,3.96-15.79-.16-31.59-.17-47.39,0-3.22.04-4.24-.72-4.19-4.07.19-12.8.08-25.6.08-38.4.01-12.64.1-25.27-.05-37.91-.04-3.06.48-4.31,3.99-4.27,15.63.19,31.26.1,46.89-.01,2.54-.02,4.15.22,3.84,3.38-.28,2.77,1.31,3.98,4.02,3.56,3.2-.49,4.15,1,3.87,3.96-.17,1.81.07,3.66-.08,5.48-.28,3.37.05,5.95,4.54,5.05,1.9-.37,2.54.62,2.53,2.55-.08,12.47-.09,24.94-.02,37.41Z"/>
      <path class="cls-1" d="M307.4,17.71c.31,3.64-1.06,4.28-4.44,4.28-62.76-.12-125.51-.1-188.26-.1-34.57,0-69.13.12-103.7-.09-1.55-.01-3.11-.02-4.66-.03h-3.92c-1.34,0-2.42-1.08-2.42-2.42V2.58C0,1.24,1.08.16,2.42.16h2.63c.05,0,.11,0,.16,0,.45.04.96.05,1.52.05,16.4-.03,32.79-.04,49.19-.06h5.03C141.25.09,221.54.12,301.84,0c4.66-.01,6.04,1.23,5.57,5.74-.41,3.95-.35,8-.01,11.97Z"/>
      <path class="cls-1" d="M51.8,100.03c0-2,.12-4-.03-5.99-.28-3.72-.47-6.92,5.07-6.11,2.83.41,2.17-2.43,2.09-4.05-.13-2.59.35-4.23,3.43-3.7,1.9.32,2.76-.48,2.66-2.44-.07-1.29.66-2.64,1.85-2.57,3.49.19,3.17-2.07,2.98-4.21-.19-2.18.53-3,2.8-2.71,1.85.24,3.63-.08,3.5,2.81-.2,4.82-.18,9.65-.01,14.47.08,2.33-.87,2.96-2.9,2.63-2.78-.46-3.28.92-3.22,3.37.14,5.82.05,11.64.03,17.46,0,2.26-.17,4.41,3.35,3.13,2.12-.77,2.87.47,2.74,2.64-.17,2.82-.04,5.65-.06,8.48-.03,3.62-3.19,5.74-5.88,3.45-1.62-1.38-3.49-2.83-4.76-5.35-1.62-3.2-7.37-4.16-7.96-9.27-7.48,1.69-5.52-3.74-5.67-7.55-.06-1.49,0-2.99-.01-4.49Z"/>
      <path class="cls-1" d="M247.83,100.53c0,2.33-.22,4.68.05,6.97.42,3.53-.49,5.39-4.44,4.63-2.26-.43-2.91.8-2.71,2.85.25,2.56-.58,4.4-3.54,3.99-3.45-.49-3.92,1.38-3.6,4.08.34,2.87-.05,4.49-3.83,4.26-3.22-.2-4.47-.89-4.12-4.2.26-2.46.22-4.99,0-7.46-.23-2.68.47-4.1,3.43-3.59,2.39.41,2.67-.97,2.64-2.92-.09-5.81-.03-11.63-.05-17.44,0-1.45.34-3.26-2.08-2.89-3.7.57-4.14-1.56-3.93-4.44.12-1.65.03-3.32.03-4.98.01-5.24.95-5.99,6.02-5.17,1.39.22,2.3.65,2.06,2.1-.58,3.46,1.11,4.37,4.15,3.9,3.26-.5,3.06,1.77,2.81,3.75-.4,3.17.66,4.69,3.98,4.12,2.93-.5,3.22,1.17,3.13,3.48-.13,2.98-.03,5.98-.03,8.97Z"/>
      <path class="cls-1" d="M152.36,131.59c-13.78,0-27.57-.11-41.35.08-3.27.05-3.95-.95-3.93-3.96.14-19.05.14-38.09,0-57.14-.02-3.1.44-4.29,4.08-4.27,27.73.17,55.46.15,83.19,0,3.13-.02,3.65.88,3.64,3.68-.13,19.36-.14,38.73.02,58.09.02,3.04-.92,3.62-3.81,3.59-13.94-.15-27.89-.07-41.84-.07Z"/>
      <path class="cls-1" d="M7.83,30h-3.75c1.25-.06,2.5,0,3.75,0Z"/>
      <path class="cls-1" d="M11,21.77v.03c-1.55-.01-3.11-.02-4.66-.03h4.66Z"/>
    </g>
  </g>
</svg>