<?xml version="1.0" encoding="UTF-8"?>
<svg id="Layer_2" xmlns="http://www.w3.org/2000/svg" viewBox="0 0 250.03 206.02">
  <defs>
    <style>
      .cls-1 {
        fill: #a81313;
      }
    </style>
  </defs>
  <g id="Layer_1-2" data-name="Layer_1">
    <g>
      <g>
        <path class="cls-1" d="M148.86,136.87h-1.92v-3.84h1.92v3.84h5.76v-3.84h-5.76v-1.92h5.76v-1.92h-5.76v-1.92h5.76v1.92h1.92v9.6h-7.68v-1.92Z"/>
        <path class="cls-1" d="M158.46,129.19h1.92v7.68h-1.92v-7.68ZM160.38,127.27h5.76v1.92h-5.76v-1.92ZM160.38,136.87h5.76v1.92h-5.76v-1.92ZM166.14,129.19h1.92v1.92h-1.92v-1.92ZM166.14,134.95h1.92v1.92h-1.92v-1.92Z"/>
        <path class="cls-1" d="M169.98,121.51h1.92v7.68h1.92v1.92h-1.92v7.68h-1.92v-17.28ZM177.66,129.19h-3.84v-1.92h3.84v1.92h1.92v9.6h-1.92v-9.6Z"/>
        <path class="cls-1" d="M181.5,121.51h1.92v1.92h-1.92v-1.92ZM181.5,127.27h1.92v11.52h-1.92v-11.52Z"/>
        <path class="cls-1" d="M187.26,136.87h-1.92v-7.68h1.92v1.92h5.76v-1.92h-5.76v-1.92h5.76v1.92h1.92v3.84h-7.68v3.84h5.76v1.92h-5.76v-1.92ZM193.02,134.95h1.92v1.92h-1.92v-1.92Z"/>
        <path class="cls-1" d="M202.62,129.19h-3.84v9.6h-1.92v-11.52h5.76v1.92h1.92v9.6h-1.92v-9.6ZM204.54,127.27h3.84v1.92h1.92v9.6h-1.92v-9.6h-3.84v-1.92Z"/>
        <path class="cls-1" d="M214.14,136.87h-1.92v-7.68h1.92v1.92h5.76v-1.92h-5.76v-1.92h5.76v1.92h1.92v3.84h-7.68v3.84h5.76v1.92h-5.76v-1.92ZM219.9,134.95h1.92v1.92h-1.92v-1.92Z"/>
        <path class="cls-1" d="M223.74,127.27h1.92v1.92h1.92v1.92h-1.92v7.68h-1.92v-11.52ZM231.42,129.19h-3.84v-1.92h3.84v1.92h1.92v9.6h-1.92v-9.6Z"/>
        <path class="cls-1" d="M235.26,123.43h1.92v3.84h1.92v1.92h-1.92v7.68h1.92v1.92h-1.92v-1.92h-1.92v-13.44Z"/>
        <path class="cls-1" d="M241.02,129.19h1.92v1.92h-1.92v-1.92ZM241.02,134.95h1.92v1.92h-1.92v-1.92ZM242.94,127.27h3.84v1.92h-3.84v-1.92ZM242.94,131.11h1.92v1.92h-1.92v-1.92ZM242.94,136.87h3.84v1.92h-3.84v-1.92ZM244.86,133.03h1.92v1.92h-1.92v-1.92ZM246.78,129.19h1.92v1.92h-1.92v-1.92ZM246.78,134.95h1.92v1.92h-1.92v-1.92Z"/>
      </g>
      <g>
        <path class="cls-1" d="M70.9,11.19c10.84,0,21.68.05,32.52-.04,1.87-.02,2.36.54,2.35,2.37-.07,13.66-.07,27.32,0,40.98,0,1.79-.4,2.46-2.31,2.43-3.56-.06-3.56.06-3.54,3.75,0,.97.02,1.94,0,2.91-.02,1.41.38,3.05-.2,4.17-.72,1.38-2.54.53-3.86.59-1.36.06-1.25.87-1.3,1.77-.23,4.45-.24,4.54-4.51,4.56-1.67,0-2.22.58-2.06,2.15.08.79-.03,1.59.03,2.38.1,1.26-.41,1.71-1.68,1.65-10.48-.47-20.97-.34-31.46-.23-1.35.01-1.94-.37-1.69-1.79.12-.69-.03-1.42.07-2.11.25-1.7-.52-2.21-2.09-2.02-.69.09-1.41-.04-2.11.02-1.29.12-1.75-.44-1.63-1.68.06-.61-.08-1.25.02-1.85.4-2.43-.71-3.2-2.96-2.82-2.2.37-3.32-.32-2.93-2.78.18-1.12.04-2.29.03-3.43-.01-1.41.37-3-.17-4.18-.68-1.5-2.5-.53-3.81-.73-1.52-.24-1.45-1.31-1.46-2.37-.02-4.14-.02-8.28-.02-12.43,0-9.61.06-19.21-.03-28.82-.02-1.96.5-2.53,2.5-2.51,10.75.1,21.51.05,32.26.05Z"/>
        <path class="cls-1" d="M6.19,39.78Q.05,39.91.06,33.87c0-6.79.05-13.57-.06-20.36-.03-1.82.43-2.42,2.32-2.38,6.43.12,12.87-.03,19.3.09,1.84.04,2.52-.59,2.49-2.31-.03-1.94.17-3.9-.09-5.81C23.65.42,24.75-.01,27.19,0c18.6.1,37.19.06,55.79.06,10.58,0,21.15.07,31.73-.05,2.25-.03,2.9.64,2.7,2.8-.18,1.92-.06,3.88.04,5.81.1,1.76.77,2.7,2.91,2.63,5.99-.18,11.99.01,17.98-.1,1.87-.04,2.37.5,2.34,2.35-.1,8.02-.11,16.04,0,24.06.03,1.93-.63,2.34-2.41,2.29-3.58-.09-3.58,0-3.6,3.63-.01,1.94-.15,3.89,0,5.81.15,1.84-.62,2.31-2.28,2.15-1.13-.11-2.29-.03-3.43-.03l.09.08c-.03-3.08.05-6.17-.14-9.24-.13-2.06.67-2.76,2.56-2.43,2.39.42,2.98-.61,2.92-2.89-.15-5.55-.14-11.1.03-16.65.07-2.27-.7-2.83-2.84-2.73-3.87.17-7.75.14-11.63.02-1.79-.06-2.21.6-2.19,2.28.08,5.99-.03,11.98.05,17.97.02,1.75-.36,2.82-2.3,2.38-1.56-.35-4.11,1.23-4.07-2.34.12-9.95-.03-19.91.09-29.86.03-2.14-.64-2.59-2.65-2.58-25.2.06-50.39.06-75.59-.01-2.12,0-2.86.42-2.83,2.71.13,9.6-.06,19.21.11,28.81.05,2.67-1.03,3.01-3.24,2.95-2.02-.06-3.44.07-3.31-2.81.26-5.63,0-11.27.09-16.91.03-1.86-.31-2.67-2.42-2.58-4.4.17-8.81.13-13.21.01-1.75-.05-2.21.52-2.2,2.23.03,6.68-.09,13.37-.15,20.05,0,0,.08-.07.08-.07Z"/>
        <path class="cls-1" d="M70.9,138.17c-10.83,0-21.67-.07-32.5.06-2.22.03-2.61-.75-2.57-2.72.04-1.83.16-3.16,2.49-2.69,2.9.58,3.73-.84,3.31-3.45-.29-1.78.32-2.53,2.25-2.39,2.28.16,4.58-.07,6.87.07,1.66.1,2.26-.49,2.03-2.09-.07-.52.06-1.07-.02-1.58-.37-2.22.54-2.86,2.73-2.75,3.56.18,3.7.04,3.56-3.59-.07-1.95.63-2.34,2.39-2.31,6.34.1,12.68.12,19.03.03,1.84-.03,2.41.51,2.36,2.36-.1,3.53.01,3.65,3.44,3.52,2.04-.08,2.94.49,2.59,2.6-.1.6.04,1.24-.04,1.85-.19,1.47.34,2.04,1.88,1.96,2.37-.12,4.76.04,7.13-.06,1.62-.07,2.33.27,2.27,2.14-.12,3.6.02,3.8,3.57,3.64,2.54-.11,2.02,1.43,2.09,2.86.07,1.5.15,2.63-2.07,2.61-10.92-.12-21.84-.05-32.77-.05Z"/>
        <path class="cls-1" d="M71.3,86.53c3.08,0,6.16.08,9.24-.03,1.67-.06,2.12.57,2.04,2.16-.12,2.37-.18,4.77,0,7.13.17,2.13-.61,2.96-2.65,2.6-2.61-.45-3.78.44-3.31,3.2.17,1.03.03,2.11.03,3.17q0,4.52-4.63,4.16c-.35-.03-.7-.1-1.05-.13q-5.55-.33-5.55-6.03c0-.44-.06-.89,0-1.32.4-2.59-.37-4.02-3.3-3.46-1.99.38-2.62-.51-2.48-2.48.17-2.45.11-4.93.02-7.39-.05-1.42.51-1.83,1.85-1.81,3.26.06,6.51.02,9.77.02,0,.07,0,.14,0,.22Z"/>
        <path class="cls-1" d="M12.15,51.3q-5.77.48-5.8-5.23c-.01-2.1-.1-4.19-.16-6.29,0,0-.08.07-.09.07q6-.36,6,5.51c0,2.01-.03,4.01-.04,6.02l.08-.09Z"/>
        <path class="cls-1" d="M29.34,63.06c-3.15.01-6.32-.1-9.46.08-2.43.14-1.85-1.46-1.87-2.74-.03-1.34-.42-2.88,1.94-2.71,2.44.17,4.91.16,7.36,0,1.86-.12,2.58.51,2.31,2.34-.15,1.02.27,2.1-.34,3.07l.07-.03Z"/>
        <path class="cls-1" d="M117.81,57.72c.79,0,1.59.09,2.36-.01,2.29-.31,3.25.39,3.08,2.93-.12,1.86-.4,2.71-2.46,2.5-1.91-.19-3.85-.04-5.78-.04-2.67,0-4.07-2.29-2.95-4.75.35-.78.98-.6,1.55-.61,1.4-.03,2.8-.01,4.2,0Z"/>
        <path class="cls-1" d="M12.07,51.38c1.31.04,2.63.2,3.93.08,1.61-.14,2.12.42,2.12,2.03,0,3.37-2.04,4.73-5.36,3.46-.8-.31-.74-.87-.74-1.46.02-1.4.08-2.8.12-4.2,0,0-.08.08-.08.08Z"/>
        <path class="cls-1" d="M29.27,63.1c1.28.49,2.58.06,3.84-.02,1.97-.13,2.83.51,2.47,2.48-.17.96.65,2.45-.58,2.77-1.47.38-3.12.18-4.68,0-.77-.08-.42-1.01-.54-1.57-.28-1.22.62-2.58-.44-3.71,0,0-.07.03-.07.03Z"/>
        <path class="cls-1" d="M128.96,51.42c.02.96-.08,1.94.07,2.88.39,2.42-.71,2.82-2.91,2.86-2.46.05-3.06-.72-3.04-3.08.02-2.21.69-3.01,2.84-2.72,1.03.14,2.09.1,3.13.15,0,0-.09-.08-.09-.08Z"/>
        <path class="cls-1" d="M111.51,65.84c.7,2.57-.85,2.53-2.73,2.61-2.06.08-2.63-.54-2.62-2.61.02-2.13.58-2.85,2.79-2.82,2.17.02,3.14.58,2.56,2.83Z"/>
      </g>
      <g>
        <path class="cls-1" d="M33.07,154.31c.29-1.22.43-2.66.43-4.31s-.14-3.16-.43-4.31h-16.16c-.29,1.15-.43,2.59-.43,4.31s.14,3.09.43,4.31h-4.31c.29-1.22.43-2.66.43-4.31s-.14-3.16-.43-4.31H1.83c-.29,1.15-.43,2.59-.43,4.31s.14,3.09.43,4.31h6.46c-.29,1.15-.43,2.59-.43,4.31s.14,3.09.43,4.31c-.29,1.15-.43,2.59-.43,4.31s.14,3.09.43,4.31c-.29,1.15-.43,2.59-.43,4.31s.14,3.09.43,4.31H1.83c-.29,1.15-.43,2.59-.43,4.31s.14,3.09.43,4.31h21.55c.29-1.22.43-2.66.43-4.31s-.14-3.16-.43-4.31h-6.46c.29-1.22.43-2.66.43-4.31s-.14-3.16-.43-4.31c.29-1.22.43-2.66.43-4.31s-.14-3.16-.43-4.31h3.23c.29-1.22.43-2.66.43-4.31s-.15-3.16-.43-4.31h7.54c-.29,1.15-.43,2.59-.43,4.31s.14,3.09.43,4.31h8.62c.29-1.22.43-2.66.43-4.31s-.15-3.16-.43-4.31h-3.23Z"/>
        <path class="cls-1" d="M79.39,154.31h-4.31c.29-1.22.43-2.66.43-4.31s-.15-3.16-.43-4.31h-21.54c-.29,1.15-.43,2.59-.43,4.31s.14,3.09.43,4.31h-5.39c-.29,1.15-.43,2.59-.43,4.31s.14,3.09.43,4.31h-3.23c-.29,1.15-.43,2.59-.43,4.31s.14,3.09.43,4.31h3.23c-.29,1.15-.43,2.59-.43,4.31s.14,3.09.43,4.31h5.39c-.29,1.15-.43,2.59-.43,4.31s.14,3.09.43,4.31h21.54c.29-1.22.43-2.66.43-4.31s-.15-3.16-.43-4.31h-18.31c.29-1.22.43-2.66.43-4.31s-.14-3.16-.43-4.31h22.62c.29-1.22.43-2.66.43-4.31s-.14-3.16-.43-4.31c.29-1.22.43-2.66.43-4.31s-.14-3.16-.43-4.31ZM70.77,162.93h-14c.29-1.22.43-2.66.43-4.31s-.14-3.16-.43-4.31h14c-.29,1.15-.43,2.59-.43,4.31s.14,3.09.43,4.31Z"/>
        <path class="cls-1" d="M108.91,150c0-1.72-.14-3.16-.43-4.31h-11.85c-.29,1.15-.43,2.59-.43,4.31s.14,3.09.43,4.31h-5.39c-.29,1.15-.43,2.59-.43,4.31s.14,3.09.43,4.31h-3.23c-.29,1.15-.43,2.59-.43,4.31s.14,3.09.43,4.31h3.23c-.29,1.15-.43,2.59-.43,4.31s.14,3.09.43,4.31h5.39c-.29,1.15-.43,2.59-.43,4.31s.14,3.09.43,4.31h11.85c.29-1.22.43-2.66.43-4.31s-.14-3.16-.43-4.31h-10.77c.29-1.22.43-2.66.43-4.31s-.15-3.16-.43-4.31h-3.23c.29-1.22.43-2.66.43-4.31s-.14-3.16-.43-4.31h3.23c.29-1.22.43-2.66.43-4.31s-.15-3.16-.43-4.31h10.77c.29-1.22.43-2.66.43-4.31Z"/>
        <path class="cls-1" d="M122.48,128.45h-8.62c-.29,1.15-.43,2.59-.43,4.31s.14,3.09.43,4.31c-.29,1.15-.43,2.59-.43,4.31s.14,3.09.43,4.31c-.29,1.15-.43,2.59-.43,4.31s.14,3.09.43,4.31h-3.23c-.29,1.15-.43,2.59-.43,4.31s.14,3.09.43,4.31h3.23c-.29,1.15-.43,2.59-.43,4.31s.14,3.09.43,4.31h-3.23c-.29,1.15-.43,2.59-.43,4.31s.14,3.09.43,4.31h3.23c-.29,1.15-.43,2.59-.43,4.31s.14,3.09.43,4.31h8.62c.29-1.22.43-2.66.43-4.31s-.15-3.16-.43-4.31c.29-1.22.43-2.66.43-4.31s-.15-3.16-.43-4.31c.29-1.22.43-2.66.43-4.31s-.15-3.16-.43-4.31c.29-1.22.43-2.66.43-4.31s-.15-3.16-.43-4.31c.29-1.22.43-2.66.43-4.31s-.15-3.16-.43-4.31c.29-1.22.43-2.66.43-4.31s-.15-3.16-.43-4.31c.29-1.22.43-2.66.43-4.31s-.15-3.16-.43-4.31Z"/>
        <path class="cls-1" d="M162.34,162.93c.29-1.22.43-2.66.43-4.31s-.14-3.16-.43-4.31h-5.39c.29-1.22.43-2.66.43-4.31s-.14-3.16-.43-4.31h-17.24c-.29,1.15-.43,2.59-.43,4.31s.14,3.09.43,4.31h-5.39c-.29,1.15-.43,2.59-.43,4.31s.14,3.09.43,4.31h-3.23c-.29,1.15-.43,2.59-.43,4.31s.14,3.09.43,4.31h3.23c-.29,1.15-.43,2.59-.43,4.31s.14,3.09.43,4.31h5.39c-.29,1.15-.43,2.59-.43,4.31s.14,3.09.43,4.31h17.24c.29-1.22.43-2.66.43-4.31s-.14-3.16-.43-4.31h5.39c.29-1.22.43-2.66.43-4.31s-.14-3.16-.43-4.31h3.23c.29-1.22.43-2.66.43-4.31s-.14-3.16-.43-4.31h-3.23ZM156.95,171.54h-3.23c-.29,1.15-.43,2.59-.43,4.31s.14,3.09.43,4.31h-10.77c.29-1.22.43-2.66.43-4.31s-.14-3.16-.43-4.31h-3.23c.29-1.22.43-2.66.43-4.31s-.14-3.16-.43-4.31h3.23c.29-1.22.43-2.66.43-4.31s-.14-3.16-.43-4.31h10.77c-.29,1.15-.43,2.59-.43,4.31s.14,3.09.43,4.31h3.23c-.29,1.15-.43,2.59-.43,4.31s.14,3.09.43,4.31Z"/>
        <path class="cls-1" d="M204.35,162.93c.29-1.22.43-2.66.43-4.31s-.14-3.16-.43-4.31h-4.31c.29-1.22.43-2.66.43-4.31s-.14-3.16-.43-4.31h-12.93c-.29,1.15-.43,2.59-.43,4.31s.14,3.09.43,4.31h8.62c-.29,1.15-.43,2.59-.43,4.31s.14,3.09.43,4.31h4.31c-.29,1.15-.43,2.59-.43,4.31s.14,3.09.43,4.31h-4.31c-.29,1.15-.43,2.59-.43,4.31s.14,3.09.43,4.31h-12.93c.29-1.22.43-2.66.43-4.31s-.14-3.16-.43-4.31c.29-1.22.43-2.66.43-4.31s-.14-3.16-.43-4.31h4.31c.29-1.22.43-2.66.43-4.31s-.14-3.16-.43-4.31h-4.31c.29-1.22.43-2.66.43-4.31s-.14-3.16-.43-4.31h-8.62c-.29,1.15-.43,2.59-.43,4.31s.14,3.09.43,4.31c-.29,1.15-.43,2.59-.43,4.31s.14,3.09.43,4.31c-.29,1.15-.43,2.59-.43,4.31s.14,3.09.43,4.31c-.29,1.15-.43,2.59-.43,4.31s.14,3.09.43,4.31c-.29,1.15-.43,2.59-.43,4.31s.14,3.09.43,4.31c-.29,1.15-.43,2.59-.43,4.31s.14,3.09.43,4.31c-.29,1.15-.43,2.59-.43,4.31s.14,3.09.43,4.31h8.62c.29-1.22.43-2.66.43-4.31s-.14-3.16-.43-4.31c.29-1.22.43-2.66.43-4.31s-.14-3.16-.43-4.31h17.24c.29-1.22.43-2.66.43-4.31s-.14-3.16-.43-4.31h4.31c.29-1.22.43-2.66.43-4.31s-.14-3.16-.43-4.31h4.31c.29-1.22.43-2.66.43-4.31s-.14-3.16-.43-4.31h-4.31Z"/>
        <path class="cls-1" d="M250.03,175.85c0-1.72-.15-3.16-.43-4.31h-4.31c.29-1.22.43-2.66.43-4.31s-.14-3.16-.43-4.31h-17.24c.29-1.22.43-2.66.43-4.31s-.14-3.16-.43-4.31h19.39c.29-1.22.43-2.66.43-4.31s-.14-3.16-.43-4.31h-23.7c-.29,1.15-.43,2.59-.43,4.31s.14,3.09.43,4.31h-4.31c-.29,1.15-.43,2.59-.43,4.31s.14,3.09.43,4.31h4.31c-.29,1.15-.43,2.59-.43,4.31s.14,3.09.43,4.31h17.24c-.29,1.15-.43,2.59-.43,4.31s.14,3.09.43,4.31h-19.39c-.29,1.15-.43,2.59-.43,4.31s.14,3.09.43,4.31h23.7c.29-1.22.43-2.66.43-4.31s-.14-3.16-.43-4.31h4.31c.29-1.22.43-2.66.43-4.31Z"/>
      </g>
    </g>
  </g>
</svg>