<?xml version="1.0" encoding="UTF-8"?>
<svg id="Layer_2" xmlns="http://www.w3.org/2000/svg" viewBox="0 0 138.02 90.78">
  <defs>
    <style>
      .cls-1 {
        fill: #a81313;
      }

      .cls-2 {
        opacity: .8;
      }
    </style>
  </defs>
  <g id="Layer_1-2" data-name="Layer_1">
    <g class="cls-2">
      <path class="cls-1" d="M5,17.37h-.22V0h48.47l4.87,4.87v3.71H12.24v71.34h-7.35V17.48s.07-.08.11-.11Z"/>
      <path class="cls-1" d="M53.9,61.51l.46-.17c-.11-.16-.2-.36-.29-.59-.09-.24-.15-.45-.17-.63-.1-.15-.2-.35-.29-.58-.09-.24-.14-.45-.16-.63-.11-.16-.21-.35-.29-.58-.09-.25-.15-.46-.17-.63l-.45.17c-.11-.16-.21-.35-.29-.59-.09-.24-.15-.45-.17-.63l-1.52.57c.1.15.2.34.29.59.09.23.14.44.17.63l-.46.17c.11.14.2.34.29.58.09.23.15.44.17.63.1.15.2.34.29.58s.14.45.17.63c.1.15.19.34.28.59.09.23.15.44.17.63l.46-.17c.1.14.19.34.28.58.09.23.15.44.17.63l1.52-.57c-.11-.16-.2-.35-.29-.58-.09-.25-.15-.46-.17-.63ZM53.9,61.51l.46-.17c-.11-.16-.2-.36-.29-.59-.09-.24-.15-.45-.17-.63-.1-.15-.2-.35-.29-.58-.09-.24-.14-.45-.16-.63-.11-.16-.21-.35-.29-.58-.09-.25-.15-.46-.17-.63l-.45.17c-.11-.16-.21-.35-.29-.59-.09-.24-.15-.45-.17-.63l-1.52.57c.1.15.2.34.29.59.09.23.14.44.17.63l-.46.17c.11.14.2.34.29.58.09.23.15.44.17.63.1.15.2.34.29.58s.14.45.17.63c.1.15.19.34.28.59.09.23.15.44.17.63l.46-.17c.1.14.19.34.28.58.09.23.15.44.17.63l1.52-.57c-.11-.16-.2-.35-.29-.58-.09-.25-.15-.46-.17-.63ZM53.9,61.51l.46-.17c-.11-.16-.2-.36-.29-.59-.09-.24-.15-.45-.17-.63-.1-.15-.2-.35-.29-.58-.09-.24-.14-.45-.16-.63-.11-.16-.21-.35-.29-.58-.09-.25-.15-.46-.17-.63l-.45.17c-.11-.16-.21-.35-.29-.59-.09-.24-.15-.45-.17-.63l-1.52.57c.1.15.2.34.29.59.09.23.14.44.17.63l-.46.17c.11.14.2.34.29.58.09.23.15.44.17.63.1.15.2.34.29.58s.14.45.17.63c.1.15.19.34.28.59.09.23.15.44.17.63l.46-.17c.1.14.19.34.28.58.09.23.15.44.17.63l1.52-.57c-.11-.16-.2-.35-.29-.58-.09-.25-.15-.46-.17-.63ZM59.22,56.05c-.09-.24-.14-.45-.17-.63-.1-.16-.2-.35-.28-.59-.09-.24-.15-.45-.17-.62l-2.43.91c.1.14.2.34.29.58.09.23.14.44.17.63.1.15.2.34.29.58.08.24.14.45.16.63l2.43-.91c-.1-.16-.2-.35-.29-.58ZM59.22,56.05c-.09-.24-.14-.45-.17-.63-.1-.16-.2-.35-.28-.59-.09-.24-.15-.45-.17-.62l-2.43.91c.1.14.2.34.29.58.09.23.14.44.17.63.1.15.2.34.29.58.08.24.14.45.16.63l2.43-.91c-.1-.16-.2-.35-.29-.58ZM53.9,61.51l.46-.17c-.11-.16-.2-.36-.29-.59-.09-.24-.15-.45-.17-.63-.1-.15-.2-.35-.29-.58-.09-.24-.14-.45-.16-.63-.11-.16-.21-.35-.29-.58-.09-.25-.15-.46-.17-.63l-.45.17c-.11-.16-.21-.35-.29-.59-.09-.24-.15-.45-.17-.63l-1.52.57c.1.15.2.34.29.59.09.23.14.44.17.63l-.46.17c.11.14.2.34.29.58.09.23.15.44.17.63.1.15.2.34.29.58s.14.45.17.63c.1.15.19.34.28.59.09.23.15.44.17.63l.46-.17c.1.14.19.34.28.58.09.23.15.44.17.63l1.52-.57c-.11-.16-.2-.35-.29-.58-.09-.25-.15-.46-.17-.63ZM53.9,61.51l.46-.17c-.11-.16-.2-.36-.29-.59-.09-.24-.15-.45-.17-.63-.1-.15-.2-.35-.29-.58-.09-.24-.14-.45-.16-.63-.11-.16-.21-.35-.29-.58-.09-.25-.15-.46-.17-.63l-.45.17c-.11-.16-.21-.35-.29-.59-.09-.24-.15-.45-.17-.63l-1.52.57c.1.15.2.34.29.59.09.23.14.44.17.63l-.46.17c.11.14.2.34.29.58.09.23.15.44.17.63.1.15.2.34.29.58s.14.45.17.63c.1.15.19.34.28.59.09.23.15.44.17.63l.46-.17c.1.14.19.34.28.58.09.23.15.44.17.63l1.52-.57c-.11-.16-.2-.35-.29-.58-.09-.25-.15-.46-.17-.63ZM59.22,56.05c-.09-.24-.14-.45-.17-.63-.1-.16-.2-.35-.28-.59-.09-.24-.15-.45-.17-.62l-2.43.91c.1.14.2.34.29.58.09.23.14.44.17.63.1.15.2.34.29.58.08.24.14.45.16.63l2.43-.91c-.1-.16-.2-.35-.29-.58ZM59.22,56.05c-.09-.24-.14-.45-.17-.63-.1-.16-.2-.35-.28-.59-.09-.24-.15-.45-.17-.62l-2.43.91c.1.14.2.34.29.58.09.23.14.44.17.63.1.15.2.34.29.58.08.24.14.45.16.63l2.43-.91c-.1-.16-.2-.35-.29-.58ZM53.9,61.51l.46-.17c-.11-.16-.2-.36-.29-.59-.09-.24-.15-.45-.17-.63-.1-.15-.2-.35-.29-.58-.09-.24-.14-.45-.16-.63-.11-.16-.21-.35-.29-.58-.09-.25-.15-.46-.17-.63l-.45.17c-.11-.16-.21-.35-.29-.59-.09-.24-.15-.45-.17-.63l-1.52.57c.1.15.2.34.29.59.09.23.14.44.17.63l-.46.17c.11.14.2.34.29.58.09.23.15.44.17.63.1.15.2.34.29.58s.14.45.17.63c.1.15.19.34.28.59.09.23.15.44.17.63l.46-.17c.1.14.19.34.28.58.09.23.15.44.17.63l1.52-.57c-.11-.16-.2-.35-.29-.58-.09-.25-.15-.46-.17-.63ZM53.9,61.51l.46-.17c-.11-.16-.2-.36-.29-.59-.09-.24-.15-.45-.17-.63-.1-.15-.2-.35-.29-.58-.09-.24-.14-.45-.16-.63-.11-.16-.21-.35-.29-.58-.09-.25-.15-.46-.17-.63l-.45.17c-.11-.16-.21-.35-.29-.59-.09-.24-.15-.45-.17-.63l-1.52.57c.1.15.2.34.29.59.09.23.14.44.17.63l-.46.17c.11.14.2.34.29.58.09.23.15.44.17.63.1.15.2.34.29.58s.14.45.17.63c.1.15.19.34.28.59.09.23.15.44.17.63l.46-.17c.1.14.19.34.28.58.09.23.15.44.17.63l1.52-.57c-.11-.16-.2-.35-.29-.58-.09-.25-.15-.46-.17-.63ZM59.22,56.05c-.09-.24-.14-.45-.17-.63-.1-.16-.2-.35-.28-.59-.09-.24-.15-.45-.17-.62l-2.43.91c.1.14.2.34.29.58.09.23.14.44.17.63.1.15.2.34.29.58.08.24.14.45.16.63l2.43-.91c-.1-.16-.2-.35-.29-.58ZM89.24,44.77c-.09-.24-.14-.45-.16-.63-.11-.15-.2-.35-.29-.58-.09-.24-.15-.45-.17-.63l-2.12.8c.1.14.2.34.29.58.08.23.14.44.16.63.11.15.2.34.29.58.09.24.15.45.17.63l2.12-.8c-.1-.15-.2-.35-.29-.58ZM89.24,44.77c-.09-.24-.14-.45-.16-.63-.11-.15-.2-.35-.29-.58-.09-.24-.15-.45-.17-.63l-2.12.8c.1.14.2.34.29.58.08.23.14.44.16.63.11.15.2.34.29.58.09.24.15.45.17.63l2.12-.8c-.1-.15-.2-.35-.29-.58ZM59.22,56.05c-.09-.24-.14-.45-.17-.63-.1-.16-.2-.35-.28-.59-.09-.24-.15-.45-.17-.62l-2.43.91c.1.14.2.34.29.58.09.23.14.44.17.63.1.15.2.34.29.58.08.24.14.45.16.63l2.43-.91c-.1-.16-.2-.35-.29-.58ZM53.9,61.51l.46-.17c-.11-.16-.2-.36-.29-.59-.09-.24-.15-.45-.17-.63-.1-.15-.2-.35-.29-.58-.09-.24-.14-.45-.16-.63-.11-.16-.21-.35-.29-.58-.09-.25-.15-.46-.17-.63l-.45.17c-.11-.16-.21-.35-.29-.59-.09-.24-.15-.45-.17-.63l-1.52.57c.1.15.2.34.29.59.09.23.14.44.17.63l-.46.17c.11.14.2.34.29.58.09.23.15.44.17.63.1.15.2.34.29.58s.14.45.17.63c.1.15.19.34.28.59.09.23.15.44.17.63l.46-.17c.1.14.19.34.28.58.09.23.15.44.17.63l1.52-.57c-.11-.16-.2-.35-.29-.58-.09-.25-.15-.46-.17-.63ZM98.89,25.63l-61.79,22.66,10.63,28.99,61.79-22.65-10.63-29ZM47.38,66.72c-.1-.15-.2-.35-.28-.58-.1-.24-.15-.45-.17-.63-.11-.16-.2-.35-.29-.58-.09-.25-.15-.46-.17-.63-.1-.16-.2-.35-.29-.59-.09-.24-.14-.45-.16-.63-.11-.15-.2-.35-.29-.58-.09-.24-.15-.45-.17-.63-.1-.16-.2-.35-.29-.58-.09-.25-.14-.45-.16-.63-.11-.16-.21-.35-.29-.59-.09-.24-.15-.45-.17-.62l-1.82.68c-.1-.16-.2-.35-.29-.59-.09-.24-.14-.45-.17-.62l4.86-1.83c.1.15.19.34.29.59.08.23.14.44.16.63l-1.82.68c.1.15.2.34.29.58.09.24.14.45.17.63.1.15.2.34.29.59.08.23.14.44.16.63.11.14.2.34.29.58.09.23.15.44.17.63.1.15.2.34.29.58.09.23.14.44.17.63.1.15.19.34.28.58.09.24.15.45.17.63.1.15.2.35.29.59.09.23.14.44.17.63l-1.22.45ZM55.4,61.63c.09.24.15.45.17.63l-.76.29c.1.15.2.34.29.58.09.24.14.44.17.63l-2.43.91c-.1-.15-.2-.35-.29-.58-.09-.24-.14-.45-.16-.63l-.76.28c-.11-.15-.2-.35-.29-.58-.09-.24-.15-.45-.17-.63l-.45.17c-.11-.15-.2-.35-.29-.58-.09-.24-.15-.45-.17-.63-.1-.16-.2-.35-.29-.58-.09-.25-.14-.46-.16-.63-.11-.16-.2-.35-.29-.59-.09-.24-.15-.45-.17-.63l.46-.17c-.11-.15-.21-.35-.29-.58-.09-.24-.15-.45-.17-.63l.76-.29c-.11-.15-.2-.35-.29-.58-.09-.24-.15-.45-.17-.63l2.43-.91c.1.15.2.34.29.58.08.24.14.45.16.63l.76-.28c.1.15.2.34.29.58.09.23.14.44.17.63l.45-.17c.1.15.2.34.29.58.09.24.14.45.17.63.1.15.2.35.29.59.08.23.14.44.16.63.11.14.2.34.29.58.09.23.15.44.17.63l-.45.17c.1.15.19.34.28.58ZM60.41,56.99c.08.23.14.44.16.63l-3.03,1.14c.1.14.2.34.29.58.09.23.14.44.17.63.1.15.19.34.28.58.09.24.15.44.17.63.1.15.2.34.29.59.09.23.14.44.17.63l-1.22.45c-.1-.16-.2-.35-.28-.58-.1-.25-.15-.46-.17-.63-.11-.16-.2-.35-.29-.59-.09-.24-.15-.45-.17-.63-.1-.15-.2-.35-.29-.58-.09-.24-.14-.45-.16-.63-.11-.16-.2-.35-.29-.58-.09-.24-.15-.45-.17-.63-.1-.16-.2-.35-.29-.59-.09-.24-.14-.45-.16-.62-.11-.16-.21-.36-.29-.59-.09-.24-.15-.45-.17-.63-.1-.15-.2-.35-.29-.58-.09-.24-.15-.45-.17-.63l4.25-1.6c.1.15.2.35.29.59.09.23.14.44.17.63l.6-.23c.1.15.2.34.29.58.09.24.14.45.17.63.1.15.2.34.29.59.08.23.14.44.16.63l-.6.22c.1.15.19.34.29.59ZM73.9,56.07c.09.23.15.44.17.63l-3.64,1.37c-.1-.16-.2-.35-.29-.59-.09-.24-.14-.45-.16-.63l-.61.23c-.11-.16-.2-.35-.29-.58-.09-.24-.15-.46-.17-.63l1.22-.46c.1.15.19.34.28.59.09.23.15.44.17.63l2.43-.92c-.11-.15-.2-.35-.29-.58-.09-.24-.15-.45-.17-.63-.1-.16-.2-.35-.29-.58-.09-.25-.14-.45-.16-.63l-3.04,1.14c-.1-.16-.2-.35-.28-.59-.1-.24-.15-.45-.17-.63l-.61.23c-.1-.15-.2-.35-.29-.58-.09-.24-.14-.45-.16-.63-.11-.16-.21-.35-.29-.58-.09-.25-.15-.46-.17-.63l.61-.23c-.11-.16-.2-.35-.29-.59-.09-.24-.15-.45-.17-.63l3.64-1.36c.1.14.2.34.29.58.09.23.14.44.17.63l.6-.23c.1.15.2.34.29.59.09.23.14.44.17.63l-1.22.45c-.1-.15-.2-.35-.28-.58-.09-.24-.15-.45-.17-.63l-2.43.91c.1.15.2.34.29.58.09.24.14.45.17.63.1.15.2.34.29.59.08.23.14.44.16.63l3.04-1.14c.1.14.19.34.29.58.08.23.14.44.16.63l.61-.23c.1.15.2.34.29.59.09.23.14.44.17.63.1.14.19.34.28.58.09.23.15.44.17.63l-.61.23c.1.14.2.34.29.58ZM76.5,55.79c-.11-.16-.21-.35-.29-.59-.09-.24-.15-.45-.17-.62-.1-.16-.2-.36-.29-.59-.09-.24-.15-.45-.17-.63-.1-.15-.2-.35-.28-.58-.1-.24-.15-.45-.17-.63-.11-.16-.2-.35-.29-.58-.09-.25-.15-.46-.17-.63-.1-.16-.2-.36-.29-.59-.09-.24-.14-.45-.16-.63-.11-.15-.2-.35-.29-.58-.09-.24-.15-.45-.17-.63-.1-.16-.2-.35-.29-.58-.09-.25-.14-.46-.16-.63l3.64-1.37c.1.15.19.34.28.58.09.24.15.45.17.63l-2.43.91c.11.15.2.35.29.59.09.23.15.44.17.63.1.14.2.34.29.58.09.23.14.44.17.63l2.42-.91c.1.15.2.34.29.58.09.24.14.45.17.63l-2.43.91c.1.15.2.34.29.59.09.23.14.44.17.63.1.14.19.34.29.58.08.23.14.44.16.63l2.43-.91c.1.15.2.34.29.58.08.23.14.44.16.63l-3.63,1.37ZM86.03,51.51c.09.24.15.45.17.63l-3.03,1.14c-.11-.15-.2-.35-.29-.58-.09-.24-.15-.45-.17-.63l-.6.23c-.11-.16-.21-.35-.29-.59-.09-.24-.15-.45-.17-.63l-.61.23c-.1-.15-.2-.35-.29-.58-.09-.24-.14-.45-.16-.63-.11-.16-.2-.35-.29-.59-.09-.24-.15-.45-.17-.62-.1-.16-.2-.36-.29-.59-.09-.24-.14-.45-.16-.63l.6-.23c-.1-.15-.2-.35-.29-.58-.09-.24-.14-.45-.16-.63l.6-.23c-.1-.15-.2-.35-.29-.58-.09-.24-.14-.45-.16-.63l3.03-1.14c.1.15.2.34.29.59.09.23.14.44.17.63l.6-.23c.1.14.2.34.29.58.09.23.14.44.17.63l-1.22.46c-.1-.16-.2-.36-.28-.59-.09-.24-.15-.45-.17-.63l-1.82.69c.1.14.2.34.29.58.09.23.14.44.17.63l-.61.23c.1.14.2.34.29.58.08.23.14.44.16.63.11.15.2.34.29.58.09.24.15.45.17.63.1.15.2.34.29.59.09.23.14.44.17.63l.6-.23c.1.14.2.34.29.58.09.24.14.44.17.63l1.82-.68c-.11-.16-.2-.35-.29-.59-.09-.24-.15-.45-.17-.62l1.22-.46c.1.15.19.34.28.58.09.24.15.45.17.63l-.61.23c.1.15.2.34.29.58ZM91.66,50.09c-.11-.15-.2-.35-.29-.58-.09-.24-.15-.45-.17-.63l-.45.17c-.11-.16-.2-.35-.29-.58-.09-.25-.15-.46-.17-.63l-.45.17c-.11-.16-.2-.35-.29-.59-.09-.24-.15-.45-.17-.62l-1.52.57c.11.14.2.34.29.58.09.23.15.44.17.63.1.14.2.34.29.58.09.23.14.44.17.63.1.15.19.34.28.58s.15.45.17.63l-1.21.46c-.11-.16-.2-.35-.29-.58-.09-.25-.15-.46-.17-.63-.1-.16-.2-.35-.29-.59-.09-.24-.14-.45-.16-.63-.11-.15-.2-.35-.29-.58-.09-.24-.15-.45-.17-.63-.1-.16-.2-.35-.29-.58-.09-.25-.14-.46-.16-.63-.11-.16-.2-.35-.29-.59-.09-.24-.15-.45-.17-.63-.1-.15-.2-.35-.29-.58-.09-.24-.14-.45-.16-.63-.11-.15-.21-.35-.29-.58-.09-.24-.15-.45-.17-.63l4.25-1.6c.1.15.19.34.28.59.09.23.15.44.17.63l.61-.23c.1.15.19.34.29.58.08.24.14.45.16.63l-.3.12c.1.14.2.34.29.58.09.23.14.44.17.63l-.91.34c.1.15.19.34.28.58.09.24.15.45.17.63l.3-.11c.11.15.2.34.29.58.09.24.15.45.17.63l.46-.17c.1.15.19.34.28.59.09.23.15.44.17.62l.46-.17c.1.15.19.35.28.59.09.23.15.44.17.63l-1.21.45ZM94.69,48.95c-.1-.15-.2-.35-.29-.58-.09-.24-.14-.45-.17-.63-.1-.16-.2-.35-.28-.58-.09-.25-.15-.46-.17-.63-.11-.16-.2-.35-.29-.59-.09-.24-.15-.45-.17-.63-.1-.15-.2-.35-.28-.58-.1-.24-.15-.45-.17-.63-.11-.15-.2-.35-.29-.58-.09-.24-.15-.45-.17-.63-.1-.16-.2-.35-.29-.59-.09-.24-.14-.45-.16-.62-.11-.16-.2-.36-.29-.59-.09-.24-.15-.45-.17-.63l3.64-1.36c.1.14.2.34.29.58.09.23.14.44.17.63l-2.43.91c.1.15.2.34.29.58.09.24.14.45.17.63.1.15.19.34.28.59.09.23.15.44.17.63l2.43-.92c.1.15.19.35.29.59.08.23.14.44.16.63l-2.42.91c.1.15.19.34.29.58.08.24.14.45.16.63.1.15.2.34.29.59.09.23.14.44.17.63l2.42-.92c.1.15.2.35.29.59.09.23.15.44.17.63l-3.64,1.36ZM101.68,45.64c-.09-.25-.15-.46-.17-.63-.1-.16-.2-.35-.29-.59-.09-.24-.14-.45-.16-.63-.11-.15-.2-.35-.29-.58-.09-.24-.15-.45-.17-.63-.1-.16-.2-.35-.29-.58-.09-.25-.14-.46-.16-.63-.11-.16-.21-.35-.29-.59-.09-.24-.15-.45-.17-.63-.1-.15-.2-.35-.29-.58-.09-.24-.15-.45-.17-.63l-1.81.69c-.11-.16-.21-.36-.29-.59-.09-.24-.15-.45-.17-.63l4.85-1.82c.1.15.2.34.29.58.09.24.14.45.17.63l-1.82.69c.1.14.2.34.29.58.08.23.14.44.16.63.1.15.2.34.29.58.09.24.14.45.17.63.1.15.2.34.29.59.09.23.14.44.16.63.11.14.2.34.29.58.09.23.15.44.17.63.1.14.2.34.29.58.09.23.14.44.17.63.1.15.19.34.28.59.09.23.15.44.17.62l-1.21.46c-.11-.16-.2-.35-.29-.58ZM89.08,44.14c-.11-.15-.2-.35-.29-.58-.09-.24-.15-.45-.17-.63l-2.12.8c.1.14.2.34.29.58.08.23.14.44.16.63.11.15.2.34.29.58.09.24.15.45.17.63l2.12-.8c-.1-.15-.2-.35-.29-.58-.09-.24-.14-.45-.16-.63ZM59.05,55.42c-.1-.16-.2-.35-.28-.59-.09-.24-.15-.45-.17-.62l-2.43.91c.1.14.2.34.29.58.09.23.14.44.17.63.1.15.2.34.29.58.08.24.14.45.16.63l2.43-.91c-.1-.16-.2-.35-.29-.58-.09-.24-.14-.45-.17-.63ZM54.07,60.75c-.09-.24-.15-.45-.17-.63-.1-.15-.2-.35-.29-.58-.09-.24-.14-.45-.16-.63-.11-.16-.21-.35-.29-.58-.09-.25-.15-.46-.17-.63l-.45.17c-.11-.16-.21-.35-.29-.59-.09-.24-.15-.45-.17-.63l-1.52.57c.1.15.2.34.29.59.09.23.14.44.17.63l-.46.17c.11.14.2.34.29.58.09.23.15.44.17.63.1.15.2.34.29.58s.14.45.17.63c.1.15.19.34.28.59.09.23.15.44.17.63l.46-.17c.1.14.19.34.28.58.09.23.15.44.17.63l1.52-.57c-.11-.16-.2-.35-.29-.58-.09-.25-.15-.46-.17-.63l.46-.17c-.11-.16-.2-.36-.29-.59ZM53.9,61.51l.46-.17c-.11-.16-.2-.36-.29-.59-.09-.24-.15-.45-.17-.63-.1-.15-.2-.35-.29-.58-.09-.24-.14-.45-.16-.63-.11-.16-.21-.35-.29-.58-.09-.25-.15-.46-.17-.63l-.45.17c-.11-.16-.21-.35-.29-.59-.09-.24-.15-.45-.17-.63l-1.52.57c.1.15.2.34.29.59.09.23.14.44.17.63l-.46.17c.11.14.2.34.29.58.09.23.15.44.17.63.1.15.2.34.29.58s.14.45.17.63c.1.15.19.34.28.59.09.23.15.44.17.63l.46-.17c.1.14.19.34.28.58.09.23.15.44.17.63l1.52-.57c-.11-.16-.2-.35-.29-.58-.09-.25-.15-.46-.17-.63ZM59.22,56.05c-.09-.24-.14-.45-.17-.63-.1-.16-.2-.35-.28-.59-.09-.24-.15-.45-.17-.62l-2.43.91c.1.14.2.34.29.58.09.23.14.44.17.63.1.15.2.34.29.58.08.24.14.45.16.63l2.43-.91c-.1-.16-.2-.35-.29-.58ZM89.24,44.77c-.09-.24-.14-.45-.16-.63-.11-.15-.2-.35-.29-.58-.09-.24-.15-.45-.17-.63l-2.12.8c.1.14.2.34.29.58.08.23.14.44.16.63.11.15.2.34.29.58.09.24.15.45.17.63l2.12-.8c-.1-.15-.2-.35-.29-.58ZM89.24,44.77c-.09-.24-.14-.45-.16-.63-.11-.15-.2-.35-.29-.58-.09-.24-.15-.45-.17-.63l-2.12.8c.1.14.2.34.29.58.08.23.14.44.16.63.11.15.2.34.29.58.09.24.15.45.17.63l2.12-.8c-.1-.15-.2-.35-.29-.58ZM59.22,56.05c-.09-.24-.14-.45-.17-.63-.1-.16-.2-.35-.28-.59-.09-.24-.15-.45-.17-.62l-2.43.91c.1.14.2.34.29.58.09.23.14.44.17.63.1.15.2.34.29.58.08.24.14.45.16.63l2.43-.91c-.1-.16-.2-.35-.29-.58ZM53.9,61.51l.46-.17c-.11-.16-.2-.36-.29-.59-.09-.24-.15-.45-.17-.63-.1-.15-.2-.35-.29-.58-.09-.24-.14-.45-.16-.63-.11-.16-.21-.35-.29-.58-.09-.25-.15-.46-.17-.63l-.45.17c-.11-.16-.21-.35-.29-.59-.09-.24-.15-.45-.17-.63l-1.52.57c.1.15.2.34.29.59.09.23.14.44.17.63l-.46.17c.11.14.2.34.29.58.09.23.15.44.17.63.1.15.2.34.29.58s.14.45.17.63c.1.15.19.34.28.59.09.23.15.44.17.63l.46-.17c.1.14.19.34.28.58.09.23.15.44.17.63l1.52-.57c-.11-.16-.2-.35-.29-.58-.09-.25-.15-.46-.17-.63ZM53.9,61.51l.46-.17c-.11-.16-.2-.36-.29-.59-.09-.24-.15-.45-.17-.63-.1-.15-.2-.35-.29-.58-.09-.24-.14-.45-.16-.63-.11-.16-.21-.35-.29-.58-.09-.25-.15-.46-.17-.63l-.45.17c-.11-.16-.21-.35-.29-.59-.09-.24-.15-.45-.17-.63l-1.52.57c.1.15.2.34.29.59.09.23.14.44.17.63l-.46.17c.11.14.2.34.29.58.09.23.15.44.17.63.1.15.2.34.29.58s.14.45.17.63c.1.15.19.34.28.59.09.23.15.44.17.63l.46-.17c.1.14.19.34.28.58.09.23.15.44.17.63l1.52-.57c-.11-.16-.2-.35-.29-.58-.09-.25-.15-.46-.17-.63ZM59.22,56.05c-.09-.24-.14-.45-.17-.63-.1-.16-.2-.35-.28-.59-.09-.24-.15-.45-.17-.62l-2.43.91c.1.14.2.34.29.58.09.23.14.44.17.63.1.15.2.34.29.58.08.24.14.45.16.63l2.43-.91c-.1-.16-.2-.35-.29-.58ZM59.22,56.05c-.09-.24-.14-.45-.17-.63-.1-.16-.2-.35-.28-.59-.09-.24-.15-.45-.17-.62l-2.43.91c.1.14.2.34.29.58.09.23.14.44.17.63.1.15.2.34.29.58.08.24.14.45.16.63l2.43-.91c-.1-.16-.2-.35-.29-.58ZM53.9,61.51l.46-.17c-.11-.16-.2-.36-.29-.59-.09-.24-.15-.45-.17-.63-.1-.15-.2-.35-.29-.58-.09-.24-.14-.45-.16-.63-.11-.16-.21-.35-.29-.58-.09-.25-.15-.46-.17-.63l-.45.17c-.11-.16-.21-.35-.29-.59-.09-.24-.15-.45-.17-.63l-1.52.57c.1.15.2.34.29.59.09.23.14.44.17.63l-.46.17c.11.14.2.34.29.58.09.23.15.44.17.63.1.15.2.34.29.58s.14.45.17.63c.1.15.19.34.28.59.09.23.15.44.17.63l.46-.17c.1.14.19.34.28.58.09.23.15.44.17.63l1.52-.57c-.11-.16-.2-.35-.29-.58-.09-.25-.15-.46-.17-.63ZM53.9,61.51l.46-.17c-.11-.16-.2-.36-.29-.59-.09-.24-.15-.45-.17-.63-.1-.15-.2-.35-.29-.58-.09-.24-.14-.45-.16-.63-.11-.16-.21-.35-.29-.58-.09-.25-.15-.46-.17-.63l-.45.17c-.11-.16-.21-.35-.29-.59-.09-.24-.15-.45-.17-.63l-1.52.57c.1.15.2.34.29.59.09.23.14.44.17.63l-.46.17c.11.14.2.34.29.58.09.23.15.44.17.63.1.15.2.34.29.58s.14.45.17.63c.1.15.19.34.28.59.09.23.15.44.17.63l.46-.17c.1.14.19.34.28.58.09.23.15.44.17.63l1.52-.57c-.11-.16-.2-.35-.29-.58-.09-.25-.15-.46-.17-.63ZM59.22,56.05c-.09-.24-.14-.45-.17-.63-.1-.16-.2-.35-.28-.59-.09-.24-.15-.45-.17-.62l-2.43.91c.1.14.2.34.29.58.09.23.14.44.17.63.1.15.2.34.29.58.08.24.14.45.16.63l2.43-.91c-.1-.16-.2-.35-.29-.58ZM59.22,56.05c-.09-.24-.14-.45-.17-.63-.1-.16-.2-.35-.28-.59-.09-.24-.15-.45-.17-.62l-2.43.91c.1.14.2.34.29.58.09.23.14.44.17.63.1.15.2.34.29.58.08.24.14.45.16.63l2.43-.91c-.1-.16-.2-.35-.29-.58ZM53.9,61.51l.46-.17c-.11-.16-.2-.36-.29-.59-.09-.24-.15-.45-.17-.63-.1-.15-.2-.35-.29-.58-.09-.24-.14-.45-.16-.63-.11-.16-.21-.35-.29-.58-.09-.25-.15-.46-.17-.63l-.45.17c-.11-.16-.21-.35-.29-.59-.09-.24-.15-.45-.17-.63l-1.52.57c.1.15.2.34.29.59.09.23.14.44.17.63l-.46.17c.11.14.2.34.29.58.09.23.15.44.17.63.1.15.2.34.29.58s.14.45.17.63c.1.15.19.34.28.59.09.23.15.44.17.63l.46-.17c.1.14.19.34.28.58.09.23.15.44.17.63l1.52-.57c-.11-.16-.2-.35-.29-.58-.09-.25-.15-.46-.17-.63Z"/>
      <path class="cls-1" d="M129.09,12.14H17.12v71.33H0v.82c2.43,2.54,3.8,3.95,6.23,6.49h125.58l6.21-6.49V21.07l-8.93-8.93ZM43.83,83.22l-13.54-36.94,72.49-26.58,13.55,36.94-72.5,26.58Z"/>
    </g>
  </g>
</svg>