<?xml version="1.0" encoding="UTF-8"?>
<svg id="Layer_2" xmlns="http://www.w3.org/2000/svg" viewBox="0 0 140.36 88.36">
  <defs>
    <style>
      .cls-1 {
        fill: #a81313;
      }

      .cls-2 {
        stroke-linejoin: bevel;
        stroke-width: 2px;
      }

      .cls-2, .cls-3, .cls-4 {
        fill: none;
        stroke: #a81313;
      }

      .cls-3 {
        stroke-width: 2.25px;
      }

      .cls-3, .cls-4 {
        stroke-miterlimit: 10;
      }

      .cls-4 {
        stroke-width: 2.34px;
      }

      .cls-5 {
        opacity: .8;
      }
    </style>
  </defs>
  <g id="Layer_1-2" data-name="Layer_1">
    <g class="cls-5">
      <path class="cls-4" d="M132.98,1.17H7.39c-2.43,2.54-3.79,3.96-6.22,6.49v73.03c2.43,2.54,3.79,3.95,6.22,6.49h125.59l6.21-6.49V7.66c-2.43-2.53-3.78-3.95-6.21-6.49ZM97.71,54.33v4.72h-54.64v-4.72h54.64ZM43.08,47.44v-4.72h54.64v4.72h-54.64Z"/>
      <line class="cls-3" x1="1.18" y1="16.07" x2="140.1" y2="16.07"/>
      <path class="cls-3" d="M33.55,29.65v41.31h76.62V29.65H33.55ZM43.08,54.33h54.64v4.72h-54.64v-4.72ZM97.71,47.44h-54.64v-4.72h54.64v4.72Z"/>
      <path class="cls-1" d="M22.78,49.13c-.58,5.71,3.52,11.27,9.73,12.73v-23.11c-5.31,1.2-9.23,5.44-9.73,10.38Z"/>
      <path class="cls-1" d="M119.9,51.49c.58-5.71-3.52-11.27-9.73-12.73v23.11c5.31-1.2,9.23-5.44,9.73-10.38Z"/>
      <path class="cls-1" d="M98.2,34.41h-54.64c-1.42,1.48-2.22,2.31-3.64,3.79v24.22c1.42,1.48,2.22,2.31,3.64,3.79h54.64c1.42-1.48,2.22-2.31,3.64-3.79v-24.22c-1.42-1.48-2.22-2.31-3.64-3.79ZM97.71,59.05h-54.64v-4.72h54.64v4.72ZM97.71,47.44h-54.64v-4.72h54.64v4.72Z"/>
      <path class="cls-2" d="M33.55,70.96c-3.78,0-7.57,0-11.35,0-.44-.36-8.85-7.59-8.68-21.05.16-12.95,8.11-19.78,8.68-20.25,3.78,0,7.57,0,11.35,0"/>
      <path class="cls-2" d="M110.74,29.65c3.78,0,7.57,0,11.35,0,.44.36,8.85,7.59,8.68,21.05-.16,12.95-8.11,19.78-8.68,20.25-3.78,0-7.57,0-11.35,0"/>
    </g>
  </g>
</svg>